<?xml version="1.0" standalone="no"?>
<!DOCTYPE svg PUBLIC "-//W3C//DTD SVG 20010904//EN"
 "http://www.w3.org/TR/2001/REC-SVG-20010904/DTD/svg10.dtd">
<svg version="1.0" xmlns="http://www.w3.org/2000/svg"
 width="9820.000000pt" height="7856.000000pt" viewBox="0 0 9820.000000 7856.000000"
 preserveAspectRatio="xMidYMid meet">

<g transform="translate(0.000000,7856.000000) scale(0.100000,-0.100000)"
fill="#000000" stroke="none">
<path d="M42750 70954 c-706 -27 -1223 -60 -1669 -104 l-193 -20 -117 -58
c-573 -289 -1779 -1061 -2366 -1516 -231 -179 -356 -287 -545 -472 -102 -99
-225 -218 -275 -264 -520 -484 -1044 -1031 -1494 -1559 -756 -888 -1378 -1794
-1926 -2807 -244 -450 -590 -1177 -784 -1649 -46 -110 -101 -243 -123 -295
-22 -52 -62 -151 -88 -220 -26 -69 -86 -224 -133 -345 -46 -121 -146 -386
-222 -590 -489 -1320 -642 -1708 -863 -2192 l-68 -148 -589 3 c-776 4 -1226
-14 -1940 -78 -683 -62 -1462 -185 -2000 -315 -82 -20 -205 -49 -273 -65 -184
-44 -519 -142 -777 -227 -966 -318 -1831 -763 -2460 -1267 -668 -534 -1113
-1133 -1298 -1746 -34 -113 -91 -423 -123 -670 -21 -170 -30 -622 -15 -825 14
-184 41 -397 77 -605 130 -747 458 -1609 921 -2419 869 -1521 2216 -2993 3878
-4242 389 -292 950 -673 1351 -917 72 -44 158 -97 190 -119 279 -189 701 -440
1169 -697 146 -80 716 -367 890 -448 55 -26 149 -70 209 -98 60 -28 197 -90
305 -137 108 -47 221 -96 251 -110 109 -50 681 -278 930 -371 339 -126 1134
-393 1440 -483 840 -246 1661 -442 2380 -569 272 -48 593 -100 700 -114 63 -9
214 -29 335 -45 294 -40 623 -76 887 -97 179 -14 219 -20 223 -33 2 -9 65
-290 140 -626 150 -675 183 -822 255 -1130 27 -115 60 -262 74 -325 60 -271
268 -1123 332 -1359 47 -175 64 -231 74 -243 16 -20 202 523 265 772 56 221
147 678 209 1045 112 660 132 770 196 1045 53 227 157 584 205 703 7 16 33 17
349 17 443 -1 650 -16 727 -56 l26 -13 0 -198 c1 -185 10 -312 48 -673 39
-372 181 -1269 316 -1995 106 -570 240 -1241 334 -1670 24 -110 67 -303 94
-430 57 -264 81 -364 201 -860 192 -786 346 -1292 433 -1422 27 -41 37 -48 69
-51 33 -3 37 0 42 25 6 29 53 366 156 1108 105 763 261 1883 365 2630 36 259
90 650 120 870 31 220 84 609 120 865 124 888 183 1316 216 1558 l33 242 502
0 c470 0 503 -1 508 -17 3 -10 10 -49 15 -88 6 -38 23 -151 40 -250 16 -99 41
-265 55 -370 147 -1057 190 -1344 272 -1790 154 -839 393 -1569 704 -2145 107
-199 129 -231 153 -226 12 3 43 8 69 11 41 5 47 10 52 33 6 30 84 572 176
1222 33 239 90 638 125 885 35 248 89 630 120 850 74 526 173 1225 236 1660
27 193 55 391 62 440 l13 90 105 7 c501 36 652 52 1059 114 91 14 208 32 260
40 275 41 1048 192 1540 300 458 101 543 120 880 201 173 41 387 92 475 113
252 60 1143 289 1630 420 935 251 2293 641 3060 877 99 31 266 81 370 113
1532 464 3629 1174 4905 1662 944 361 1473 586 2255 961 1839 880 3520 1948
4705 2987 317 278 396 357 487 491 307 452 535 882 648 1223 115 351 150 588
140 965 -10 367 -34 542 -121 884 -70 275 -116 405 -214 602 -179 363 -413
671 -741 976 -519 481 -1228 895 -2204 1287 -1284 515 -3077 999 -5684 1533
-107 22 -198 42 -203 45 -4 3 -8 148 -8 322 0 174 -7 873 -15 1552 -29 2467
-37 3470 -31 3695 6 235 -5 613 -24 765 -29 238 -66 398 -137 595 -44 123
-459 965 -647 1315 -40 74 -124 234 -187 355 -105 203 -120 226 -189 296 -91
92 -328 281 -550 439 -646 459 -1450 870 -2466 1261 -674 259 -1619 566 -1984
644 -91 20 -250 56 -355 80 -104 24 -311 71 -460 104 -531 119 -773 173 -1005
226 -129 29 -311 70 -405 90 -93 20 -235 52 -315 70 -80 19 -266 61 -415 95
-148 33 -488 109 -755 169 -431 98 -892 201 -1185 266 -55 12 -244 54 -420 93
-316 71 -385 83 -1110 201 -608 99 -1163 189 -1450 236 -317 52 -435 61 -1540
116 -195 10 -1804 20 -1995 13z m-40 -1078 c223 -30 700 -136 700 -155 0 -4
-31 -94 -69 -201 -37 -107 -129 -368 -204 -580 -74 -212 -161 -457 -192 -545
-131 -370 -286 -807 -322 -908 -36 -103 -39 -108 -63 -104 -14 2 -122 25 -240
50 -118 26 -312 67 -430 92 -118 25 -309 66 -425 91 -115 25 -325 69 -465 99
-140 29 -478 101 -750 160 -272 58 -625 133 -785 166 -159 34 -295 63 -301 64
-7 2 -14 45 -18 106 l-7 103 153 154 c309 310 639 587 943 789 530 352 1087
563 1655 628 171 19 647 14 820 -9z m15358 -5501 c81 -19 133 -46 181 -94 33
-33 47 -64 115 -262 42 -123 90 -267 106 -319 16 -52 70 -225 119 -384 170
-539 360 -1214 361 -1279 0 -27 -9 -32 -137 -94 -381 -181 -894 -427 -1288
-618 -316 -153 -1384 -664 -1470 -705 l-84 -38 -43 33 c-24 18 -158 120 -298
227 -140 107 -390 298 -555 424 -165 127 -403 309 -530 405 -253 193 -905 691
-1325 1013 -420 322 -980 753 -1125 867 -49 38 -146 114 -214 167 -222 173
-425 346 -413 350 43 14 735 -101 1592 -264 576 -109 1978 -385 2600 -511 200
-41 352 -66 396 -67 66 -1 77 2 190 57 65 32 157 82 204 110 100 60 439 286
525 349 33 24 122 89 199 144 76 54 188 135 250 179 388 280 403 289 476 309
70 19 91 19 168 1z m2216 -6652 c-13 -92 -130 -802 -171 -1038 -83 -477 -92
-528 -162 -910 -131 -709 -228 -1150 -263 -1192 -14 -18 -125 -51 -848 -257
-542 -155 -627 -179 -980 -277 -157 -43 -359 -100 -450 -125 -1592 -442 -2979
-819 -3230 -879 -58 -14 -298 -54 -535 -90 -236 -35 -596 -89 -800 -120 -978
-147 -1260 -189 -1630 -245 -220 -33 -490 -73 -600 -89 -110 -16 -292 -43
-405 -60 -113 -17 -371 -55 -575 -86 -203 -30 -404 -59 -445 -65 -41 -5 -196
-28 -345 -50 -304 -46 -1097 -161 -1310 -190 -77 -10 -313 -44 -525 -74 -212
-31 -403 -58 -425 -61 -22 -2 -218 -29 -435 -59 -704 -97 -1250 -166 -1323
-166 l-38 0 117 228 c208 405 258 502 426 827 260 503 301 582 458 880 316
598 527 984 605 1105 94 147 220 201 545 235 85 9 265 32 400 50 263 36 339
44 1040 105 693 60 1960 164 3005 245 253 20 570 44 705 55 135 10 342 26 460
35 118 9 474 36 790 61 316 24 643 49 725 54 83 5 422 29 755 54 333 25 706
52 830 60 207 14 237 18 370 55 310 86 699 232 1330 498 281 119 781 341 1005
446 94 43 208 96 255 117 177 80 733 350 918 448 201 105 297 168 586 384 94
70 172 128 173 128 1 0 -1 -17 -3 -37z m4173 -6765 c151 -160 148 -284 -11
-552 -120 -203 -564 -1110 -550 -1125 2 -2 36 27 76 64 218 203 599 365 803
341 139 -16 213 -63 265 -170 43 -86 60 -180 60 -326 2 -652 -433 -1495 -836
-1620 -37 -11 -84 -20 -106 -20 -44 0 -128 19 -128 29 0 3 20 19 44 34 109 68
274 251 407 448 81 121 207 366 262 509 73 191 138 461 162 673 8 69 1 80 -70
113 -67 32 -180 33 -259 3 -174 -65 -363 -264 -516 -545 -118 -217 -214 -490
-246 -699 -18 -115 -23 -327 -10 -433 l8 -73 -53 26 c-117 60 -207 193 -254
377 -36 145 -47 247 -47 433 1 445 117 995 321 1528 144 376 339 734 535 985
66 83 64 83 143 0z m-1692 -1347 c100 -49 203 -155 256 -264 166 -347 128
-948 -99 -1547 -162 -428 -337 -718 -569 -941 -268 -259 -516 -278 -732 -57
-58 59 -76 104 -137 353 -57 232 -77 391 -77 620 -1 355 58 628 205 960 154
346 466 697 748 840 164 84 283 94 405 36z m-2125 -701 c164 -31 315 -161 400
-342 38 -80 76 -228 89 -344 29 -260 -115 -924 -289 -1328 -238 -556 -606
-968 -940 -1052 -101 -25 -218 -16 -304 24 -177 83 -293 297 -342 630 -31 204
-22 536 23 852 31 218 197 621 374 905 293 471 665 716 989 655z m-1992 -705
c111 -60 157 -151 155 -310 -1 -115 -27 -219 -91 -357 -49 -106 -258 -441
-447 -718 -180 -262 -185 -269 -465 -642 -231 -307 -270 -365 -270 -405 0 -46
27 -91 66 -111 l39 -20 638 320 c352 175 640 318 641 316 2 -2 53 -69 114
-151 109 -145 111 -147 89 -161 -29 -18 -375 -204 -557 -299 -80 -42 -206
-108 -280 -147 -217 -113 -697 -348 -800 -392 -114 -47 -146 -47 -226 6 -104
70 -194 214 -214 345 -24 149 29 357 145 577 130 248 393 622 756 1074 86 107
256 319 378 470 121 151 219 280 218 285 -6 21 -92 55 -139 55 -63 0 -120 -20
-253 -87 -148 -75 -317 -177 -578 -351 -167 -110 -221 -142 -230 -133 -7 7
-14 49 -15 94 -3 64 1 96 18 147 33 100 96 203 155 254 177 152 370 241 736
336 142 37 162 40 259 37 94 -3 111 -7 158 -32z m-9110 -2071 c97 -20 117 -31
175 -93 86 -91 141 -239 161 -426 l5 -50 -30 60 c-34 66 -80 119 -121 141 -43
22 -286 36 -445 24 -304 -22 -543 -88 -812 -227 -390 -200 -915 -610 -1059
-829 -37 -55 -32 -64 38 -64 45 0 224 -15 540 -45 547 -52 1072 -178 1267
-304 63 -41 128 -108 143 -147 14 -37 12 -89 -5 -131 -8 -19 -15 -38 -15 -41
0 -2 22 -2 49 1 95 11 182 69 341 229 111 110 149 128 260 125 38 -2 74 -7 80
-13 19 -19 32 -183 43 -562 l12 -377 34 50 c30 44 106 141 121 155 3 3 48 54
100 115 213 247 451 472 542 512 33 15 38 21 43 62 26 208 78 307 180 347 60
22 96 16 115 -21 28 -56 10 -497 -30 -743 -13 -77 -12 -82 5 -48 51 97 241
322 440 521 294 293 523 455 645 455 38 0 43 -4 108 -86 146 -185 230 -379
241 -553 l6 -95 175 208 c96 115 184 221 195 236 11 15 37 47 59 71 21 24 121
144 223 265 182 219 185 222 254 253 135 60 233 84 354 84 92 0 123 -4 187
-25 70 -23 174 -75 166 -83 -2 -2 -42 -10 -91 -19 -207 -39 -394 -126 -505
-235 -112 -110 -153 -212 -153 -386 -1 -105 24 -235 59 -305 l17 -35 75 1 c69
0 82 4 159 44 67 35 109 68 209 164 173 168 256 272 628 795 211 298 218 305
319 331 91 24 218 28 286 10 156 -42 262 -158 276 -301 15 -159 -90 -334 -272
-452 -68 -44 -230 -118 -289 -133 -38 -9 -22 -17 78 -39 102 -23 276 -16 391
15 121 32 255 80 301 106 67 38 173 161 259 302 l80 131 3 -85 c5 -143 -36
-255 -135 -371 -72 -85 -317 -238 -535 -335 -213 -94 -351 -123 -502 -106 -93
10 -140 29 -243 98 -83 56 -113 61 -199 35 -51 -15 -96 -47 -283 -200 -185
-150 -377 -253 -556 -297 -75 -19 -91 -20 -139 -9 -61 14 -99 39 -121 81 -25
49 -37 195 -30 385 l6 180 -44 -76 c-168 -290 -441 -575 -672 -704 -33 -18
-76 -36 -95 -40 l-36 -6 -12 83 c-32 218 -206 722 -257 742 -10 3 -64 -42
-162 -137 -121 -117 -502 -479 -985 -936 -66 -62 -80 -72 -93 -61 -38 31 -86
290 -89 472 0 59 -1 108 -2 108 -1 0 -292 -327 -424 -479 -151 -172 -210 -221
-315 -260 -65 -24 -189 -49 -272 -54 -61 -3 -63 -3 -73 26 -5 16 -19 97 -30
181 -11 83 -25 189 -31 236 -30 225 -65 290 -157 290 -75 0 -172 -32 -212 -69
-256 -243 -1823 -1093 -2237 -1215 -29 -8 -53 -13 -53 -11 0 2 109 82 243 176
133 95 271 193 307 219 36 26 207 147 380 270 173 123 342 243 375 267 33 24
160 114 283 200 250 178 230 151 216 290 l-7 60 -196 61 c-458 143 -1189 354
-1481 429 -74 19 -136 36 -138 37 -9 9 21 237 42 318 57 225 159 404 320 563
123 122 255 214 486 338 253 136 649 265 1015 332 260 47 398 55 523 29z m491
-1302 c14 -10 37 -41 51 -68 21 -41 25 -62 25 -134 0 -71 -4 -91 -23 -121 -61
-99 -212 -88 -269 20 -33 64 -33 168 2 238 44 87 144 118 214 65z"/>
<path d="M62432 49390 c-77 -39 -201 -168 -272 -283 -185 -298 -352 -764 -420
-1173 -90 -543 -25 -914 172 -980 110 -36 227 4 338 115 75 76 118 138 195
282 267 498 407 1352 295 1797 -25 95 -68 185 -113 235 -31 33 -40 37 -84 37
-35 0 -67 -9 -111 -30z"/>
<path d="M60391 48545 c-123 -35 -274 -144 -402 -291 -173 -199 -377 -615
-463 -944 -59 -224 -71 -312 -71 -530 0 -260 21 -350 112 -487 30 -46 48 -61
99 -85 77 -36 184 -47 265 -28 337 79 690 597 863 1265 140 538 73 983 -164
1088 -59 26 -168 32 -239 12z"/>
<path d="M55122 45317 c-43 -53 -80 -178 -112 -374 -11 -70 -23 -143 -26 -160
-3 -18 -1 -33 4 -33 5 0 38 11 73 24 220 84 327 160 354 250 46 154 -23 243
-223 290 -46 10 -63 11 -70 3z"/>
<path d="M64085 45230 c-264 -13 -610 -54 -1100 -131 -38 -6 -158 -29 -265
-50 -891 -174 -1883 -458 -2770 -792 -306 -115 -580 -223 -655 -257 -22 -10
-110 -47 -195 -83 -732 -306 -1662 -780 -2363 -1206 -991 -601 -1788 -1189
-2602 -1920 -202 -182 -787 -767 -970 -971 -585 -652 -1030 -1255 -1483 -2007
-34 -56 -62 -105 -62 -108 0 -3 -20 -38 -44 -78 -154 -255 -387 -728 -566
-1147 -436 -1024 -726 -2184 -825 -3305 -46 -520 -70 -1240 -46 -1375 6 -30 9
-36 10 -18 1 25 28 240 67 528 31 232 125 774 193 1115 228 1135 536 2124 956
3065 378 847 887 1658 1443 2300 196 226 744 764 875 859 16 11 20 11 32 -5
23 -31 79 -211 170 -549 200 -739 271 -996 356 -1285 337 -1139 641 -1948 989
-2628 443 -864 906 -1380 1390 -1550 149 -52 232 -67 380 -66 503 0 947 291
1267 829 271 455 459 1038 593 1835 44 264 75 492 90 655 53 601 63 742 80
1160 13 310 13 1248 0 1620 -11 330 -34 770 -55 1085 -8 118 -19 287 -25 375
-13 197 -53 633 -86 940 -13 127 -29 275 -34 330 -6 55 -21 183 -34 284 -24
178 -24 185 -7 207 115 146 751 491 1536 834 545 238 1308 533 1705 661 695
222 1056 319 1562 419 518 103 1071 119 1355 40 258 -71 419 -218 469 -425 15
-62 17 -150 18 -760 0 -440 -4 -761 -11 -885 -7 -107 -18 -274 -24 -370 -24
-396 -100 -1030 -170 -1430 -213 -1218 -608 -2372 -1117 -3268 -23 -41 -42
-76 -42 -78 0 -9 -189 -318 -277 -452 -831 -1274 -1962 -2279 -3418 -3041
-1458 -762 -3239 -1274 -5495 -1580 -445 -61 -1078 -134 -1690 -196 -732 -75
-1160 -122 -1440 -161 -173 -24 -222 -34 -172 -34 22 0 655 46 1032 75 113 9
351 29 530 46 179 16 429 38 555 50 127 11 433 42 680 70 248 28 493 55 545
60 83 9 302 37 840 109 527 70 1318 204 1805 305 474 98 570 120 853 190 1168
290 2011 592 2838 1015 956 489 1750 1123 2357 1883 219 274 367 488 544 782
726 1207 1190 2764 1442 4840 61 499 130 1277 151 1695 6 118 15 289 20 380 5
91 16 338 25 550 8 212 17 417 20 455 16 206 -105 353 -373 449 -176 63 -387
102 -637 116 -171 11 -499 10 -720 0z"/>
<path d="M25919 43032 c-76 -48 -126 -144 -160 -307 -31 -145 -42 -534 -36
-1265 3 -355 10 -715 16 -800 37 -554 42 -623 72 -870 104 -880 250 -1556 487
-2260 156 -461 312 -830 513 -1213 297 -567 594 -998 1045 -1517 87 -100 306
-321 462 -466 917 -855 2127 -1507 3539 -1908 632 -179 1178 -291 1903 -391
654 -90 1644 -158 2245 -153 121 1 200 3 175 5 -25 2 -151 10 -280 18 -581 38
-1081 89 -1620 166 -1492 211 -2787 589 -3835 1119 -967 490 -1727 1090 -2352
1856 -524 641 -961 1461 -1234 2312 -235 732 -374 1432 -459 2317 -55 569 -70
1531 -37 2258 10 197 17 365 17 374 0 14 13 15 103 10 56 -4 147 -18 202 -32
325 -83 958 -328 1620 -627 550 -249 1083 -500 1755 -831 135 -66 291 -142
348 -168 60 -29 102 -55 102 -63 0 -8 -15 -102 -34 -208 -213 -1202 -285
-2411 -212 -3560 46 -723 189 -1504 372 -2030 101 -291 209 -538 323 -742 372
-664 860 -1022 1446 -1061 87 -6 108 -4 165 15 132 43 275 146 445 319 655
665 1152 2002 1405 3780 22 157 42 286 44 288 7 8 319 -335 461 -507 38 -47
78 -94 88 -105 86 -93 445 -618 679 -995 234 -374 861 -1416 1202 -1998 43
-73 83 -135 87 -138 10 -6 -11 52 -73 196 -22 52 -60 143 -84 201 -157 386
-447 980 -712 1454 -246 442 -630 1046 -877 1380 -28 39 -75 104 -105 145
-208 292 -532 689 -955 1170 -218 249 -860 885 -1165 1156 -309 274 -743 628
-1035 844 -77 57 -180 134 -230 170 -263 195 -699 485 -1070 712 -790 484
-1565 876 -2520 1273 -423 176 -1151 434 -1615 571 -510 151 -542 156 -621
106z"/>
<path d="M65890 30473 c-81 -15 -815 -213 -1150 -310 -85 -25 -272 -78 -415
-118 -143 -40 -386 -110 -539 -154 -153 -45 -354 -102 -445 -127 -91 -25 -268
-75 -394 -110 -406 -115 -675 -176 -1132 -254 -93 -16 -262 -45 -375 -64 -370
-63 -1437 -236 -2115 -341 -198 -31 -457 -72 -575 -90 -118 -19 -305 -48 -415
-64 -110 -17 -375 -58 -590 -91 -940 -144 -1820 -275 -2180 -324 -99 -13 -245
-27 -325 -30 -319 -13 -1578 -38 -3125 -61 -931 -14 -1227 -25 -1495 -55 -143
-15 -220 -33 -220 -50 0 -11 98 -49 455 -175 1005 -356 2044 -634 3270 -874
361 -70 948 -173 1210 -211 255 -37 265 -44 78 -53 -472 -24 -768 -38 -1043
-48 -407 -15 -1929 -15 -2355 0 -986 34 -2069 49 -2363 32 -180 -10 -251 -22
-212 -35 8 -3 209 -69 445 -146 840 -277 2334 -786 2860 -975 72 -25 195 -69
275 -97 170 -59 668 -242 789 -289 l85 -34 -40 -6 c-21 -4 -174 -12 -339 -18
-165 -7 -635 -28 -1045 -47 -410 -19 -806 -36 -880 -39 -74 -3 -155 -9 -180
-12 l-45 -6 35 -14 c181 -76 843 -222 1285 -283 502 -69 620 -70 1025 -11 594
87 1711 281 2595 452 171 33 337 65 370 70 86 14 544 109 865 180 322 70 578
139 559 149 -8 4 -75 13 -149 19 -74 7 -373 36 -665 66 -291 30 -606 62 -700
70 -93 9 -404 40 -690 70 -286 29 -561 56 -611 60 -107 8 -166 20 -144 28 23
9 198 43 395 77 247 42 601 107 1105 201 1697 318 3005 648 3810 962 264 103
280 109 280 117 0 9 -81 45 -175 77 -158 54 -50 49 -2995 138 -630 20 -1152
35 -1160 35 -87 1 292 91 875 206 708 140 1072 212 1145 224 36 7 153 29 261
51 107 21 242 48 300 58 174 33 791 159 1009 207 579 127 1398 338 1895 487
630 190 1186 378 1670 565 293 112 911 368 1169 482 73 32 175 76 227 98 51
21 177 75 279 119 102 45 304 131 450 193 146 62 269 116 275 121 9 9 -19 10
-65 2z"/>
<path d="M28066 29359 c28 -32 210 -188 279 -240 236 -179 614 -397 985 -570
888 -412 1886 -706 2940 -865 129 -19 237 -37 239 -40 11 -10 -37 -82 -94
-140 -73 -74 -175 -142 -343 -228 -166 -84 -254 -119 -507 -206 -253 -86 -566
-172 -890 -246 -217 -50 -659 -144 -677 -144 -5 0 -8 -4 -8 -9 0 -13 105 -37
415 -96 667 -125 2263 -371 2801 -431 82 -9 153 -20 158 -25 16 -15 -181 -199
-290 -271 -224 -149 -409 -225 -929 -384 -82 -25 -211 -69 -285 -96 -143 -53
-370 -156 -370 -168 0 -20 500 -54 1040 -70 631 -18 1389 -9 2092 25 367 18
653 45 669 63 3 4 4 27 2 52 l-5 46 -115 12 c-138 15 -542 83 -702 118 -237
53 -451 116 -451 134 0 4 37 27 83 50 71 38 557 298 1212 650 110 59 297 159
415 223 118 63 424 227 680 365 256 137 493 264 528 281 34 17 62 36 62 41 0
6 -24 8 -57 5 -32 -3 -141 -12 -243 -20 -248 -21 -556 -55 -1085 -120 -776
-96 -1260 -132 -1670 -122 -246 6 -525 25 -525 37 0 6 79 36 380 145 80 29
332 121 560 205 228 84 525 193 660 242 135 49 353 129 485 178 132 49 359
132 505 186 146 53 276 101 289 106 47 17 4 26 -184 38 -1611 95 -2809 224
-3975 426 -509 88 -601 105 -970 178 -651 129 -789 159 -1705 366 -215 49
-635 150 -1074 260 -177 44 -326 80 -332 80 -7 0 -4 -9 7 -21z"/>
<path d="M40430 28835 c0 -29 878 -538 1348 -782 121 -62 201 -106 220 -118 2
-2 -22 -39 -52 -84 -109 -164 -185 -357 -217 -551 -9 -56 -14 -161 -13 -310 1
-188 6 -271 34 -505 29 -242 34 -313 34 -520 1 -258 -7 -322 -60 -515 -18 -65
-34 -102 -50 -117 -29 -27 -115 -53 -293 -88 -215 -43 -319 -90 -404 -185 -44
-49 -106 -154 -96 -164 2 -3 160 26 349 65 352 71 602 109 714 109 102 0 201
-20 1011 -205 353 -81 602 -132 728 -150 86 -12 111 -12 195 1 53 9 114 18
135 21 32 5 36 8 25 19 -20 20 -676 235 -1173 384 -521 157 -795 239 -832 249
l-41 11 -8 88 c-11 130 -8 846 5 1092 38 711 114 1197 206 1332 21 32 36 40
98 58 132 38 591 182 674 211 45 16 245 85 445 153 681 233 1309 465 1343 497
5 5 -871 9 -2158 9 -1192 0 -2167 -2 -2167 -5z"/>
<path d="M20640 23630 c-1121 -43 -2223 -199 -3360 -476 -806 -196 -1585 -446
-2305 -739 -1390 -566 -2527 -1279 -3306 -2071 -471 -481 -794 -960 -1004
-1490 -87 -218 -166 -534 -199 -789 -19 -140 -22 -562 -6 -713 40 -369 187
-881 326 -1138 320 -588 939 -1043 1844 -1356 262 -90 745 -213 1035 -262 420
-72 771 -116 1070 -136 88 -6 223 -15 300 -20 479 -32 1296 -37 1840 -10 706
34 1012 58 1640 126 601 65 1319 167 1889 269 l29 5 -7 -142 c-8 -169 7 -542
29 -736 81 -710 297 -1098 699 -1253 160 -62 236 -73 496 -73 260 0 354 10
645 70 329 68 522 118 1140 296 209 60 426 123 483 139 56 16 116 29 132 29
42 0 96 -24 109 -48 26 -49 10 -93 -88 -239 -87 -131 -214 -356 -291 -516
-157 -325 -222 -573 -206 -789 24 -319 234 -499 671 -575 126 -22 560 -25 740
-5 474 52 787 112 1440 274 388 96 395 98 683 182 207 61 207 61 261 12 38
-35 43 -60 21 -116 -28 -72 -78 -276 -95 -388 -8 -54 -15 -164 -15 -247 0
-602 309 -1008 871 -1147 150 -37 360 -25 869 48 518 74 1227 246 1740 422
254 87 272 94 430 157 629 253 1064 503 1339 769 150 146 220 249 260 380 31
101 28 185 -10 290 -48 133 -87 156 -269 156 -298 0 -791 -145 -1715 -505
-732 -285 -713 -279 -790 -279 -87 1 -244 42 -329 86 -177 94 -266 270 -237
473 46 331 321 769 775 1235 386 396 654 626 1221 1049 46 33 77 50 90 47 11
-2 133 -34 270 -70 138 -37 313 -78 390 -92 86 -15 165 -36 205 -54 120 -53
175 -65 310 -65 83 0 153 6 208 18 465 100 987 463 1284 892 213 307 272 602
164 820 -35 72 -45 83 -117 144 -83 70 -118 201 -85 315 15 49 28 69 90 131
112 111 166 239 166 395 0 158 -51 272 -180 401 -197 198 -493 293 -829 267
-239 -18 -548 -129 -690 -247 -25 -21 -113 -87 -196 -146 -391 -283 -703 -467
-906 -535 -96 -32 -136 -26 -514 69 -399 100 -543 113 -750 66 -123 -28 -220
-71 -389 -172 -279 -167 -487 -325 -695 -528 -257 -251 -379 -463 -357 -623 9
-70 45 -140 93 -182 37 -32 55 -40 116 -50 303 -49 509 -137 562 -241 18 -34
19 -94 3 -140 -82 -242 -655 -655 -1763 -1271 -99 -56 -209 -117 -245 -138
-36 -20 -101 -57 -145 -80 -44 -24 -177 -96 -295 -160 -118 -64 -254 -138
-303 -164 -235 -128 -516 -168 -748 -107 -151 39 -294 132 -359 233 -51 78
-63 123 -58 223 5 109 50 203 149 309 63 68 84 83 175 125 337 159 771 438
1039 666 431 368 657 703 681 1011 7 88 -14 43 236 491 105 189 118 218 118
260 0 155 -55 374 -126 500 -222 398 -758 660 -1519 743 -521 57 -1193 38
-1835 -51 -538 -75 -1154 -202 -1680 -345 -541 -148 -844 -243 -1430 -448
-202 -71 -636 -171 -1015 -235 -163 -27 -893 -99 -1370 -135 -1686 -128 -2952
-124 -3930 10 -533 73 -1015 206 -1344 370 -212 105 -331 185 -456 306 -111
106 -135 138 -266 343 -209 327 -291 579 -290 892 1 290 99 594 290 902 219
351 575 715 1036 1061 863 647 2077 1239 3525 1720 519 173 1249 378 1650 464
63 14 198 43 300 65 591 126 1177 213 1805 267 256 21 827 30 1055 15 467 -30
870 -111 1144 -228 206 -88 268 -198 196 -349 -39 -83 -211 -244 -380 -356
-362 -241 -868 -476 -1495 -694 -381 -133 -659 -208 -885 -240 l-115 -16 -160
35 c-304 68 -819 147 -961 147 -63 0 -238 -20 -614 -70 -1463 -196 -2355 -474
-2727 -849 -141 -142 -198 -272 -197 -446 1 -117 19 -195 73 -310 74 -158 199
-321 393 -512 l123 -121 130 -26 c194 -39 450 -74 677 -93 258 -22 1061 -25
1363 -5 942 62 1956 254 2855 539 865 274 1594 605 2159 982 296 197 473 338
682 543 168 164 240 247 347 395 215 301 336 593 372 898 32 279 -11 586 -120
861 -59 147 -84 186 -187 287 -406 399 -1012 705 -1798 907 -375 96 -903 182
-1325 215 -489 38 -1047 51 -1470 35z m4840 -8399 c287 -23 290 -23 290 -37 0
-25 -113 -127 -220 -200 -372 -252 -1115 -596 -1825 -845 -60 -21 -148 -52
-195 -69 -184 -68 -653 -203 -886 -255 -574 -128 -877 -122 -970 21 -35 53 -8
239 54 376 137 302 498 566 1011 737 488 163 934 236 1736 285 109 7 878 -4
1005 -13z"/>
<path d="M77298 22976 c-166 -59 -332 -244 -471 -522 -136 -271 -271 -684
-363 -1114 -19 -91 -57 -257 -84 -370 -89 -368 -111 -462 -160 -680 -288
-1289 -292 -1306 -455 -1795 -215 -646 -441 -1137 -596 -1293 -51 -51 -76 -59
-117 -38 -53 27 -116 196 -128 341 -6 66 1 100 134 625 328 1296 433 1938 393
2398 -51 582 -283 872 -768 957 -135 24 -261 30 -324 15 -187 -43 -379 -231
-533 -520 -283 -533 -481 -1433 -548 -2490 -18 -280 -17 -1154 1 -1412 16
-227 26 -178 -100 -493 -164 -412 -267 -645 -388 -880 -150 -291 -263 -463
-415 -633 -165 -187 -329 -282 -487 -282 l-56 0 -59 71 c-366 438 -488 940
-423 1743 23 290 104 700 220 1110 39 139 51 166 73 166 16 0 236 144 339 222
318 240 599 531 744 768 55 91 178 343 202 415 54 164 100 384 133 640 18 138
22 220 23 440 0 284 -3 311 -52 473 -46 154 -131 203 -383 218 -94 6 -337 -8
-383 -22 -16 -5 -17 4 -11 133 15 325 -64 715 -164 805 -159 143 -479 149
-761 13 -125 -60 -204 -118 -321 -234 -280 -277 -466 -732 -530 -1298 -11 -98
-25 -207 -31 -243 -22 -130 -81 -385 -92 -396 -36 -36 -522 -224 -578 -224
-13 0 -64 -20 -114 -45 -470 -233 -758 -871 -826 -1830 -13 -187 -7 -560 10
-665 10 -55 17 -70 46 -96 93 -82 206 -70 635 71 311 102 382 119 406 95 11
-11 11 -16 -27 -265 -63 -417 -173 -867 -320 -1309 -140 -418 -391 -963 -601
-1304 -279 -451 -579 -781 -840 -921 -194 -105 -366 -117 -506 -35 -101 60
-209 208 -268 371 l-27 73 71 152 c39 84 111 241 160 348 508 1100 771 2004
722 2483 -13 125 -49 258 -92 339 -39 74 -147 177 -225 217 -162 81 -465 59
-713 -52 -208 -93 -352 -197 -546 -393 -219 -221 -372 -440 -533 -764 -152
-304 -253 -591 -324 -915 -75 -343 -98 -543 -102 -905 -3 -204 -8 -294 -19
-350 -97 -453 -399 -976 -783 -1357 -145 -144 -227 -211 -346 -287 -128 -80
-228 -116 -321 -116 -41 0 -87 5 -102 10 -14 6 -57 41 -93 78 -153 152 -185
333 -111 617 60 233 142 412 577 1265 116 228 255 511 308 628 l97 214 5 146
c8 237 -22 377 -124 573 -71 138 -158 252 -280 370 -193 185 -266 227 -410
236 -109 7 -240 -17 -424 -78 -195 -65 -277 -100 -779 -336 -282 -133 -439
-196 -559 -225 -71 -16 -102 -18 -190 -13 -58 4 -122 14 -142 22 -21 8 -69 48
-110 92 -74 77 -138 123 -208 147 -64 22 -232 46 -275 40 -118 -18 -274 -135
-442 -331 -32 -39 -136 -169 -231 -290 -94 -121 -195 -248 -225 -281 -81 -93
-159 -154 -198 -154 -5 0 -54 55 -109 123 -144 179 -233 252 -369 304 -58 22
-79 24 -157 21 -83 -3 -98 -8 -175 -46 -197 -98 -396 -289 -741 -712 -74 -91
-150 -186 -169 -211 -19 -26 -111 -145 -205 -265 -93 -121 -208 -271 -256
-334 -432 -571 -1044 -1355 -1332 -1705 -242 -293 -335 -404 -576 -689 -310
-365 -570 -662 -729 -834 -124 -133 -200 -187 -306 -217 -150 -43 -260 34
-273 193 -16 190 181 580 417 827 226 236 662 816 894 1189 128 205 194 321
291 516 105 210 167 365 208 520 26 100 30 133 31 255 1 126 -1 146 -23 199
-40 100 -119 172 -235 212 -68 24 -272 35 -456 24 -448 -28 -791 -162 -1110
-435 -45 -38 -111 -104 -147 -145 -36 -41 -98 -106 -139 -143 -110 -102 -284
-341 -394 -542 -18 -33 -57 -104 -87 -159 -107 -191 -299 -609 -422 -916 -45
-113 -88 -218 -96 -235 -65 -144 -245 -717 -245 -782 0 -19 -153 -163 -412
-386 -1107 -955 -1983 -1378 -2592 -1252 -274 57 -508 251 -655 543 l-32 64
27 96 c109 391 323 713 641 966 165 132 443 285 662 366 l84 31 66 -25 c218
-81 326 -100 556 -100 180 0 196 1 310 30 428 110 765 363 1037 779 175 266
286 538 355 865 24 114 27 145 27 365 1 232 0 244 -27 350 -34 130 -105 285
-172 374 -97 127 -264 235 -410 266 -104 22 -327 19 -472 -5 -350 -59 -720
-189 -1168 -411 -842 -416 -1654 -1037 -2221 -1699 -356 -415 -583 -797 -732
-1231 -50 -144 -84 -211 -169 -336 -170 -251 -248 -336 -490 -535 -723 -594
-1520 -979 -2152 -1039 -281 -27 -522 34 -660 166 -140 133 -189 332 -146 590
27 163 -3 139 260 205 640 161 1232 406 1774 734 803 487 1412 1128 1645 1732
160 415 110 778 -140 1015 -70 66 -126 105 -214 149 -177 89 -320 124 -644
156 -193 20 -625 14 -804 -10 -874 -117 -1649 -482 -2338 -1100 -113 -101
-366 -363 -468 -483 -551 -654 -912 -1454 -1001 -2218 -17 -151 -20 -481 -4
-623 26 -241 106 -546 199 -752 168 -374 472 -740 798 -960 131 -88 394 -174
629 -205 292 -38 686 1 1054 104 457 129 1045 401 1654 766 254 153 293 177
510 318 192 125 474 316 618 420 38 27 70 47 71 45 1 -2 15 -34 31 -73 44
-109 161 -339 217 -429 170 -271 401 -510 634 -654 291 -180 564 -259 939
-269 217 -6 364 8 610 58 571 117 1261 451 1940 939 197 141 459 346 664 518
l185 155 15 -24 c128 -195 300 -409 451 -560 430 -431 867 -570 1332 -423 103
33 286 124 396 198 319 215 706 629 1024 1096 47 69 106 156 131 194 27 39 49
62 51 55 3 -8 19 -79 36 -159 69 -312 200 -634 328 -806 184 -246 426 -391
727 -434 119 -17 310 -12 400 9 215 52 516 215 824 446 293 220 659 560 961
895 559 620 1014 1293 1194 1768 74 196 86 258 96 497 7 175 13 226 34 306 84
319 241 577 482 793 214 191 437 280 542 216 72 -44 80 -141 28 -331 -74 -272
-96 -361 -130 -527 -180 -872 -127 -1519 159 -1964 56 -86 184 -216 274 -277
545 -370 1424 -176 2206 488 365 310 698 712 939 1136 47 83 89 156 93 163 6
10 29 -11 80 -70 165 -192 404 -407 603 -541 155 -105 386 -202 575 -243 112
-23 341 -24 459 -1 491 98 961 469 1429 1131 191 270 418 658 603 1029 54 108
102 197 105 197 4 0 42 -62 84 -137 316 -561 666 -895 1035 -989 57 -15 108
-19 215 -18 156 1 229 16 383 79 256 104 573 362 841 685 53 64 111 134 129
156 100 121 365 513 519 769 195 325 528 960 724 1383 l94 204 120 -5 c164 -6
264 -33 376 -102 105 -65 279 -152 374 -188 282 -107 553 -114 768 -22 121 52
183 93 284 189 145 137 249 287 369 527 85 169 128 278 289 719 154 424 217
563 259 568 16 2 26 -1 26 -10 0 -7 13 -220 29 -473 17 -253 35 -541 41 -640
25 -418 94 -1143 136 -1435 29 -205 97 -587 125 -710 80 -340 193 -647 312
-848 196 -330 425 -488 743 -509 83 -5 95 -4 127 16 164 101 326 709 546 2056
77 468 128 789 162 1015 11 80 45 300 75 490 29 190 65 422 79 515 163 1085
392 2418 537 3135 57 285 73 477 58 727 -16 257 -64 395 -169 478 -209 166
-397 153 -537 -38 -60 -81 -142 -251 -194 -402 -51 -150 -148 -520 -235 -900
-135 -594 -203 -839 -297 -1085 -47 -122 -53 -130 -83 -130 -27 0 -29 7 -44
150 -49 454 -55 664 -56 1965 -1 1354 -1 1359 -59 1535 -14 41 -37 111 -52
155 -64 198 -234 427 -396 535 -91 61 -159 83 -268 87 -81 3 -105 0 -162 -21z
m-17241 -9788 c71 -43 255 -369 368 -653 l48 -120 -11 -67 c-49 -283 -328
-823 -605 -1168 -170 -213 -393 -402 -543 -461 -71 -27 -227 -38 -275 -19 -44
19 -104 92 -128 158 -55 149 -48 318 23 599 133 520 560 1314 886 1645 118
119 158 134 237 86z m-13503 -854 c24 -9 20 -70 -9 -132 -106 -229 -521 -544
-1122 -854 -84 -43 -159 -78 -167 -78 -9 0 -23 11 -31 24 -13 20 -14 32 -6 63
23 86 160 248 347 413 416 364 855 615 988 564z"/>
<path d="M68060 19933 c-112 -19 -262 -84 -364 -157 -286 -204 -511 -501 -650
-858 -128 -326 -132 -556 -16 -805 116 -249 280 -378 550 -433 365 -74 650 -3
888 224 113 108 192 212 254 331 159 310 195 642 117 1100 -57 338 -215 537
-468 591 -61 13 -252 17 -311 7z"/>
<path d="M40860 18545 c-208 -13 -530 -34 -980 -66 -516 -36 -1257 -136 -1740
-235 -312 -64 -907 -224 -945 -253 -5 -5 -35 -16 -65 -26 -221 -72 -615 -258
-845 -400 -397 -245 -729 -569 -950 -929 -247 -404 -390 -869 -434 -1421 -18
-213 -16 -575 4 -680 45 -247 144 -434 330 -621 331 -333 820 -551 2015 -899
1098 -319 1535 -462 2085 -680 438 -174 829 -355 1142 -530 63 -36 117 -65
119 -65 5 0 187 -112 215 -133 15 -10 37 -38 50 -60 45 -80 26 -248 -45 -402
l-33 -70 -120 -68 c-771 -433 -1965 -704 -3383 -767 -799 -35 -1673 31 -2150
164 -213 58 -394 151 -450 228 l-29 39 6 128 c9 194 -29 333 -115 419 -62 62
-99 69 -392 76 l-255 6 -142 -35 c-349 -85 -642 -210 -899 -380 -394 -263
-656 -598 -748 -959 -72 -278 -15 -612 144 -840 113 -164 327 -344 525 -444
278 -139 484 -197 925 -261 74 -11 227 -33 340 -50 296 -44 486 -69 645 -85
77 -9 226 -25 330 -36 693 -75 1262 -104 2050 -104 755 0 1161 21 1720 89 381
47 554 75 935 155 867 181 1601 482 2105 863 120 91 277 231 332 295 26 31 50
59 54 62 16 14 105 129 148 194 71 105 166 298 228 466 169 453 214 894 132
1277 -130 603 -554 1115 -1286 1551 -492 293 -1062 525 -1838 748 -913 262
-1439 448 -1894 669 -415 202 -651 381 -742 562 -30 60 -34 77 -34 143 1 63 5
83 30 128 41 76 89 128 179 194 186 136 488 257 916 367 209 54 600 132 830
165 645 94 1026 130 1755 167 127 7 439 13 695 13 417 1 471 -1 522 -17 89
-27 117 -77 82 -149 -12 -25 -34 -42 -93 -71 -145 -72 -311 -238 -386 -387
-69 -137 -92 -289 -64 -422 24 -112 143 -173 334 -173 178 1 304 40 650 200
349 161 468 208 750 296 103 32 201 55 275 65 129 17 342 62 476 100 363 104
668 282 880 514 208 228 344 526 398 875 54 350 57 410 27 527 -67 260 -262
430 -679 593 -520 202 -1127 312 -2087 376 -263 17 -1282 20 -1555 4z"/>
</g>
</svg>
