<svg width="175" height="196" viewBox="0 0 175 196" fill="none" xmlns="http://www.w3.org/2000/svg">
<path d="M44.1538 39.7027C44.1033 40.0281 43.402 44.4419 43.3754 44.6119C43.5428 44.58 46.5247 44.0076 46.6934 43.9757C46.6057 43.8269 44.3225 39.9869 44.1538 39.7027ZM136.072 130.291C136.072 130.291 135.054 130.546 134.941 130.572C134.969 130.689 135.608 133.262 135.637 133.378C135.802 133.337 136.633 133.132 136.633 133.132C137.602 132.892 138.141 132.34 138.141 131.623C138.141 131.5 138.124 131.371 138.092 131.235C137.875 130.372 137.139 130.027 136.072 130.291ZM129.421 132.38C128.851 132 128.207 131.882 127.51 132.03C126.811 132.161 126.265 132.517 125.884 133.084C125.345 133.888 125.18 135.078 125.432 136.345C125.78 138.074 126.927 139.946 129.015 139.529C129.733 139.385 130.29 139.023 130.667 138.457C131.192 137.668 131.347 136.486 131.088 135.211C130.838 133.946 130.231 132.914 129.421 132.38ZM60.0317 134.197C60.0317 134.197 58.9904 134.054 58.8761 134.037C58.8589 134.157 58.5016 136.783 58.4843 136.903C58.5985 136.919 59.5018 137.042 59.5018 137.042C60.1433 137.13 60.6759 137.029 61.0439 136.75C61.3294 136.532 61.5021 136.22 61.5566 135.82C61.5659 135.742 61.5712 135.664 61.5712 135.589C61.5712 134.834 61.0213 134.331 60.0317 134.197ZM101.881 136.183C101.368 135.729 100.747 135.526 100.036 135.572C99.3281 135.609 98.737 135.885 98.2801 136.396C97.6346 137.118 97.3078 138.271 97.3849 139.562C97.4619 140.858 97.9122 141.962 98.6188 142.591C99.1302 143.043 99.7584 143.251 100.492 143.207C101.225 143.163 101.825 142.884 102.278 142.374C102.904 141.667 103.22 140.516 103.143 139.219C103.067 137.928 102.608 136.822 101.881 136.183ZM171.655 130.566C171.655 132.312 171.454 132.775 171.192 133.386C170.808 134.282 169.755 134.837 169.755 134.837C145.34 145.599 114.853 150.956 87.5027 150.956C60.1486 150.956 29.6626 145.599 5.24793 134.837C5.24793 134.837 4.19064 134.282 3.81076 133.386C3.54777 132.775 3.34321 132.312 3.34321 130.566V48.1344C3.34321 46.3891 3.54777 45.9269 3.81076 45.3146C4.19064 44.4193 5.24793 43.8668 5.24793 43.8668C29.6626 33.1066 60.1486 27.7471 87.5027 27.7471C114.853 27.7471 145.34 33.1066 169.755 43.8668C169.755 43.8668 170.808 44.4193 171.192 45.3146C171.454 45.9269 171.655 46.3891 171.655 48.1344V130.566ZM173.963 43.1442C173.176 41.9501 172.061 41.2607 171.431 40.9433C146.763 30.3186 116.071 24.4065 87.5027 24.4065C58.9333 24.4065 28.236 30.3186 3.56769 40.9433C2.94208 41.2607 1.82635 41.9501 1.04002 43.1442C0.1833 44.4379 0.0252368 46.6561 0 48.0826V130.529C0.0252368 131.958 0.1833 134.172 1.04002 135.47C1.75197 136.552 2.74151 137.224 3.3897 137.578C28.1072 148.258 58.8629 154.197 87.5027 154.197C116.136 154.197 146.894 148.258 171.613 137.578C172.257 137.224 173.248 136.552 173.963 135.47C174.818 134.172 174.977 131.958 175 130.529V48.0826C174.977 46.6561 174.818 44.4379 173.963 43.1442ZM151.672 130.911C151.833 130.857 154.712 129.886 154.873 129.83C154.767 129.696 151.984 126.196 151.779 125.941C151.77 126.268 151.675 130.74 151.672 130.911ZM98.8831 43.2159C99.6163 43.2518 100.245 43.0406 100.751 42.5823C101.453 41.9474 101.894 40.841 101.961 39.5446C102.026 38.2536 101.69 37.102 101.04 36.3874C100.579 35.88 99.9869 35.6077 99.275 35.5758C98.5683 35.5333 97.9494 35.7445 97.4393 36.1988C96.7181 36.8443 96.2638 37.956 96.1987 39.2458C96.1071 41.007 96.7566 43.1057 98.8831 43.2159ZM157.385 132.999C157.385 132.999 155.776 130.983 155.723 130.915C155.639 130.942 151.734 132.258 151.652 132.285C151.649 132.374 151.59 134.954 151.59 134.954L150.182 135.427L150.635 124.644L151.951 124.198L151.993 124.185L158.843 132.51L157.385 132.999ZM143.965 137.22L141.153 127.545L146.031 126.129L146.095 126.112L146.478 127.44C146.478 127.44 143.016 128.446 142.896 128.482C142.929 128.596 143.635 131.032 143.67 131.149C143.79 131.114 146.933 130.201 146.933 130.201L147.319 131.53C147.319 131.53 144.178 132.44 144.057 132.477C144.092 132.594 144.903 135.382 144.935 135.5C145.056 135.464 148.517 134.459 148.517 134.459L148.905 135.787L143.965 137.22ZM140.465 138.155L138.276 135.106C137.684 134.296 137.317 134.386 136.655 134.549C136.655 134.549 136.076 134.697 135.971 134.721C136.001 134.844 137.037 139.008 137.037 139.008L135.666 139.35L133.236 129.571L135.429 129.026C136.424 128.779 137.554 128.596 138.405 129.107C138.951 129.437 139.318 130.005 139.529 130.85C139.581 131.057 139.605 131.266 139.605 131.468C139.605 132.328 139.138 133.088 138.35 133.501C138.723 133.586 138.975 133.768 139.367 134.256L142.023 137.769L140.465 138.155ZM129.286 140.885C126.681 141.407 124.597 139.737 123.974 136.637C123.362 133.582 124.674 131.183 127.239 130.669C129.802 130.158 131.937 131.864 132.549 134.919C133.171 138.02 131.89 140.363 129.286 140.885ZM124.428 141.665C124.428 141.665 122.578 141.953 122.523 141.937C122.523 141.937 118.225 138.082 117.97 137.855C118.022 138.187 118.702 142.556 118.702 142.556L117.306 142.774L115.759 132.819L117.152 132.601C117.152 132.601 117.758 136.502 117.807 136.817C118.254 136.109 120.822 132.049 120.863 132.023L122.551 131.761L122.695 131.739C122.695 131.739 119.272 137.012 119.211 137.103C119.296 137.177 124.568 141.642 124.568 141.642L124.428 141.665ZM108.482 143.798L107.074 143.941L106.06 133.918L110.86 133.431L110.925 133.426L111.062 134.802C111.062 134.802 107.729 135.139 107.606 135.151C107.616 135.272 107.874 137.793 107.885 137.914C108.008 137.902 111.189 137.58 111.189 137.58L111.329 138.956C111.329 138.956 108.149 139.278 108.024 139.29C108.037 139.416 108.482 143.798 108.482 143.798ZM103.448 143.265C102.742 144.061 101.747 144.518 100.574 144.588C97.9202 144.748 96.0872 142.808 95.8986 139.65C95.7139 136.539 97.3437 134.346 99.9537 134.189C102.568 134.037 104.446 136.021 104.63 139.128C104.73 140.824 104.312 142.292 103.448 143.265ZM91.6893 134.826C91.6893 134.826 88.208 140.577 88.2013 140.57C88.2013 140.572 88.192 144.795 88.192 144.795L86.7814 144.794C86.7814 144.794 86.7894 140.622 86.7894 140.585C86.7695 140.554 83.3094 134.811 83.3094 134.811L83.2496 134.711L84.9006 134.714C84.9006 134.714 87.4137 138.936 87.5213 139.116C87.6275 138.936 90.0967 134.723 90.0967 134.723L91.7491 134.729L91.6893 134.826ZM82.1923 136.054C82.1923 136.054 79.5345 135.935 79.4109 135.929C79.4043 136.058 79.0244 144.612 79.0244 144.612L77.6138 144.55C77.6138 144.55 77.9964 135.994 78.0003 135.868C77.8781 135.863 75.2216 135.743 75.2216 135.743L75.2827 134.426L75.2854 134.362L82.2534 134.671L82.1923 136.054ZM72.9729 144.276L71.5663 144.172L72.2981 134.191L72.3021 134.127L73.7114 134.229L72.9729 144.276ZM67.6918 137.801C68.7251 138.497 69.898 139.283 69.7107 141.171C69.5181 143.085 68.1992 144.062 66.0912 143.852C65.443 143.789 64.844 143.522 64.2848 143.253L64.241 143.231L64.5292 141.787L64.6062 141.836C64.84 141.972 65.6556 142.42 66.3808 142.492C66.7553 142.529 67.2973 142.448 67.7024 142.116C68.0039 141.871 68.1779 141.532 68.2204 141.11C68.316 140.132 67.5948 139.658 66.7607 139.109C65.7897 138.472 64.6886 137.75 64.8599 136.046C65.026 134.373 66.2798 133.406 68.0557 133.581C68.6986 133.645 69.3879 133.845 69.9445 134.132L69.9896 134.153L69.6496 135.573L69.5752 135.532C68.9563 135.185 68.6176 135.027 67.9694 134.962C67.6785 134.932 67.1326 134.93 66.754 135.241C66.5229 135.429 66.3874 135.708 66.3529 136.067C66.2745 136.851 66.9307 137.292 67.6918 137.801ZM63.0349 135.993C62.8822 137.117 62.048 137.907 60.9535 138.017C61.2763 138.238 61.4423 138.499 61.6203 139.096L62.7905 143.344L61.2019 143.128L60.2961 139.485C60.045 138.511 59.6731 138.461 58.997 138.368C58.997 138.368 58.4046 138.288 58.297 138.275C58.2811 138.4 57.6993 142.65 57.6993 142.65L56.3007 142.458L57.6555 132.542L57.6635 132.477L59.9002 132.781C60.9177 132.921 62.0387 133.171 62.6378 133.96C62.9326 134.346 63.0774 134.826 63.0774 135.415C63.0774 135.596 63.0628 135.789 63.0349 135.993ZM55.4665 133.529C55.4665 133.529 51.9148 132.905 51.7912 132.882C51.77 133.002 51.3303 135.5 51.3091 135.619C51.4313 135.64 54.6563 136.207 54.6563 136.207L54.4185 137.57C54.4185 137.57 51.1935 137.004 51.0713 136.98C51.0488 137.102 50.5467 139.961 50.5268 140.08C50.6503 140.101 54.1994 140.727 54.1994 140.727L53.9616 142.09L48.8943 141.2L50.6304 131.339L50.6423 131.276L55.7056 132.168L55.4665 133.529ZM42.0804 139.788L40.9036 129.303L40.8929 129.215L42.4324 129.552C42.4324 129.552 43.232 138.213 43.2599 138.519C43.4153 138.252 47.8264 130.729 47.8264 130.729L49.2769 131.047L43.738 140.149L42.0804 139.788ZM37.0622 138.6L35.6928 138.255L38.1488 128.554L38.1647 128.49L39.5328 128.834L37.0622 138.6ZM31.2113 137.057C31.2113 137.057 29.7037 128.644 29.6307 128.244C29.5151 128.645 27.3965 135.949 27.3965 135.949L26.0377 135.555L28.8324 125.944L28.8497 125.881L30.6255 126.396C30.6255 126.396 32.0786 134.59 32.153 135.009C32.2739 134.593 34.3433 127.476 34.3433 127.476L35.6968 127.869L32.8889 137.544L31.2113 137.057ZM20.0194 133.738C19.0684 133.412 18.3976 132.861 18.0271 132.099C17.5635 131.152 17.5834 129.931 18.0855 128.471L19.9796 122.96L20.0008 122.899L21.3344 123.357L19.4828 128.755C19.0644 129.968 19.0126 130.865 19.3221 131.5C19.5346 131.934 19.9105 132.237 20.4697 132.429C21.0209 132.619 21.5164 132.609 21.9441 132.4C22.579 132.091 23.0904 131.349 23.5074 130.135L25.3603 124.74L26.6939 125.197L24.7825 130.772C23.87 133.427 22.1778 134.48 20.0194 133.738ZM116.093 120.681V126.847C106.06 128.041 96.0035 128.648 87.5213 128.648C69.5739 128.648 44.5695 125.929 27.6781 120.681H116.093ZM20.6052 98.4354H101.674V101.257H54.8781V113.268H120.689V91.0211H154.443V114.521C154.425 115.458 154.306 116.914 153.656 117.763C153.117 118.472 152.371 118.912 151.88 119.147C143.52 122.284 132.286 124.664 120.689 126.258V116.084H20.7473C20.6477 115.526 20.6145 114.965 20.6052 114.521V98.4354ZM20.6052 61.9045C20.6092 61.7278 20.6185 61.5286 20.6318 61.3227H54.8781V93.8396H20.6052V61.9045ZM24.1383 44.0554C24.7387 42.9848 25.7269 42.229 26.9981 41.8704C27.7432 41.6619 28.4246 41.6167 29.0808 41.7363L29.1246 41.7442L29.4314 43.2545L29.3252 43.2186C28.6982 43.0207 28.062 43.0087 27.4337 43.1854C26.5704 43.4298 25.8956 43.9478 25.4799 44.6876C24.9964 45.5497 24.9061 46.6481 25.2262 47.7811C25.8266 49.9143 27.5998 51.0858 29.446 50.5678C30.0079 50.4097 30.7982 50.0139 31.1582 49.5929L31.2312 49.5065L31.7306 50.965L31.6974 50.9942C31.2604 51.3674 30.6242 51.6742 29.806 51.9027C28.5176 52.2653 27.2836 52.1484 26.2423 51.564C25.0774 50.9105 24.226 49.727 23.781 48.1438C23.3653 46.6601 23.4902 45.2096 24.1383 44.0554ZM43.1921 38.2629L44.5602 38.0025L44.6027 37.9919L50.2638 47.1675L48.7522 47.457C48.7522 47.457 47.4333 45.2402 47.3881 45.1631C47.3004 45.1817 43.2559 45.9548 43.1682 45.9721C43.1549 46.0584 42.7458 48.6073 42.7458 48.6073L41.2874 48.8849L43.1921 38.2629ZM64.5026 35.1322L64.5677 35.1242L64.7205 36.4989C64.7205 36.4989 62.0812 36.7978 61.9577 36.8137C61.971 36.9399 62.9326 45.4487 62.9326 45.4487L61.5287 45.6081C61.5287 45.6081 60.5683 37.0967 60.5551 36.9705C60.4315 36.9838 57.7883 37.284 57.7883 37.284L57.6316 35.9079L64.5026 35.1322ZM116.093 91.0211V108.67H59.4765V105.848H106.272V93.8396H59.4765V56.7256H24.6537C36.7302 52.4725 54.1516 49.7005 70.076 48.4825V91.0211H116.093ZM87.9875 68.7768H154.443V71.5967H87.9875V68.7768ZM154.443 86.424H120.689V83.6081H154.443V86.424ZM87.9875 76.1925H154.443V79.0123H87.9875V76.1925ZM74.6717 61.3638H154.42C154.431 61.5538 154.439 61.7397 154.443 61.9045V64.1797H83.3957V83.6081H116.093V86.424H74.6717V61.3638ZM74.6717 48.1716C79.1931 47.906 83.5338 47.7692 87.5213 47.7692C106.614 47.7692 133.75 50.8374 150.498 56.7654H74.6717V48.1716ZM77.3614 34.2516C77.3614 34.2516 77.4956 38.2828 77.4996 38.409C77.6231 38.4037 81.5255 38.2748 81.6491 38.2695C81.6451 38.1447 81.5109 34.1121 81.5109 34.1121L82.8604 34.0669L82.9242 34.0656L83.2562 44.1337L81.8456 44.1816C81.8456 44.1816 81.6995 39.7797 81.6955 39.6549C81.5707 39.6575 77.6683 39.7864 77.5447 39.7917C77.5474 39.9179 77.6962 44.3197 77.6962 44.3197L76.2816 44.3662L75.9495 34.298L77.3614 34.2516ZM94.7124 39.1701C94.7988 37.4912 95.3872 36.0806 96.3688 35.1959C97.1617 34.48 98.1938 34.1333 99.348 34.1944C101.961 34.3273 103.606 36.5096 103.447 39.619C103.361 41.3152 102.782 42.7285 101.815 43.6011C101.024 44.3131 99.9856 44.6571 98.8114 44.5973C97.6372 44.5362 96.6397 44.0859 95.9264 43.2956C95.0551 42.33 94.6248 40.8636 94.7124 39.1701ZM115.535 35.8255L115.543 35.7631L116.946 35.9477C116.946 35.9477 115.824 44.4366 115.806 44.5641C115.931 44.58 119.518 45.0529 119.518 45.0529L119.337 46.4263L114.226 45.7516L115.535 35.8255ZM131.9 38.4502L131.911 38.3864L133.297 38.6653L131.311 48.5409L129.926 48.2633L131.9 38.4502ZM143.539 46.1447C144.355 43.2159 146.822 41.6951 149.544 42.4495C150.291 42.6581 150.898 42.9715 151.394 43.4125L151.429 43.4417L150.908 44.8909L150.834 44.8085C150.399 44.3117 149.861 43.9717 149.235 43.8004C148.37 43.5599 147.522 43.6543 146.787 44.0713C145.926 44.5575 145.28 45.45 144.966 46.5844C144.653 47.7107 144.75 48.8092 145.243 49.6792C145.655 50.4084 146.326 50.9291 147.129 51.1536C147.69 51.309 148.572 51.382 149.1 51.208L149.209 51.1735L148.879 52.6797L148.836 52.6864C148.265 52.7794 147.581 52.7129 146.747 52.4845C143.947 51.7075 142.689 49.2183 143.539 46.1447ZM167.562 44.8324C143.234 34.6195 114.042 29.4433 87.492 29.4433C60.9349 29.4433 31.7452 34.6195 7.41962 44.8324C5.83236 45.6174 5.06596 46.3161 5.06596 48.1159V130.509C5.06596 132.31 5.83236 133.006 7.41962 133.793C31.7452 144.005 60.9349 149.185 87.492 149.185C114.042 149.185 143.234 144.005 167.562 133.793C169.146 133.006 169.914 132.31 169.914 130.509V48.1159C169.914 46.3161 169.146 45.6174 167.562 44.8324Z" fill="#0C2E86"/>
<path d="M174.831 -2.67029e-05V45.8247L171.344 42.338V5.47902L127.014 28.3914L120.041 27.3952L174.831 -2.67029e-05Z" fill="#0C2E86"/>
<path d="M169.352 8.96568V37.8552C159.5 33 149.17 30.2921 133.987 26.8971L169.352 8.96568Z" fill="#0C2E86"/>
<path d="M8.39233e-05 -2.67029e-05V45.8247L3.48675 42.338V5.47902L47.8172 28.3914L54.7905 27.3952L8.39233e-05 -2.67029e-05Z" fill="#0C2E86"/>
<path d="M5.47913 8.96568V37.8552C15.3311 33 25.6615 30.2921 40.8439 26.8971L5.47913 8.96568Z" fill="#0C2E86"/>
<path d="M6.5805 171.694H3V170.605H8.5605V171.694C8.5715 172.244 8.4945 172.854 8.3295 173.525C8.0655 174.581 7.642 175.417 7.059 176.033C6.718 176.407 6.344 176.726 5.937 176.99C5.541 177.254 5.1725 177.447 4.8315 177.568C4.5015 177.689 4.1935 177.788 3.9075 177.865C3.6215 177.931 3.4015 177.969 3.2475 177.98H3V176.875C3.187 176.853 3.4015 176.798 3.6435 176.71C3.8965 176.622 4.177 176.49 4.485 176.314C4.793 176.138 5.09 175.896 5.376 175.588C5.673 175.28 5.904 174.933 6.069 174.548C6.201 174.207 6.3055 173.866 6.3825 173.525C6.5255 172.898 6.5915 172.288 6.5805 171.694ZM12.1905 173.228V181.825H10.2105V171.265C10.2105 170.803 10.084 170.489 9.831 170.324L9.7485 170.275H11.7615C12.0475 170.275 12.1905 170.407 12.1905 170.671V172.139H14.1705V173.228H12.1905Z" fill="#0C2E86"/>
<path d="M24.0844 179.119C24.0844 179.79 23.7929 180.125 23.2099 180.125H18.3259V180.752H24.0844V181.825H17.7814C17.3964 181.825 17.0719 181.704 16.8079 181.462C16.5439 181.231 16.4119 180.939 16.4119 180.587V180.043C16.4119 179.823 16.3734 179.641 16.2964 179.498C16.2304 179.344 16.1754 179.251 16.1314 179.218C16.0874 179.185 16.0544 179.163 16.0324 179.152V179.102H22.0879V178.508H16.2964V177.419H23.6719C23.9469 177.419 24.0844 177.546 24.0844 177.799V179.119ZM24.2329 171.331H18.1774V171.958H24.2329V173.03H18.1774V173.624H24.2329V174.68H21.1804V175.687H25.3219V176.776H15.1249V175.687H19.2004V174.68H17.6164C17.2534 174.68 16.9344 174.576 16.6594 174.367C16.3954 174.147 16.2634 173.855 16.2634 173.492V171.347C16.2634 170.852 16.1369 170.511 15.8839 170.324L15.8179 170.275H24.2329V171.331Z" fill="#0C2E86"/>
<path d="M29.1381 178.789V177.683H34.9956C34.9956 177.485 34.9956 177.188 34.9956 176.792V176.099C34.4566 176.341 33.8241 176.462 33.0981 176.462H28.9401C28.5661 176.462 28.2636 176.363 28.0326 176.165C27.8016 175.956 27.6861 175.692 27.6861 175.373V173.905C27.6861 173.872 27.6861 173.833 27.6861 173.789C27.6641 173.47 27.5486 173.234 27.3396 173.08L27.2901 173.03H31.7616V171.512H27.5871V170.44H33.1641C33.2961 170.44 33.3951 170.478 33.4611 170.555C33.5381 170.632 33.5766 170.726 33.5766 170.836V173.146C33.5656 173.531 33.4501 173.784 33.2301 173.905C33.0871 173.971 32.9056 174.004 32.6856 174.004H29.6661V175.39H33.1971C33.9011 175.39 34.5006 175.307 34.9956 175.142V171.067C34.9956 170.704 34.8691 170.456 34.6161 170.324L34.5336 170.275H36.5466C36.8326 170.275 36.9756 170.379 36.9756 170.588V181.825H35.0121V178.789H29.1381Z" fill="#0C2E86"/>
<path d="M44.1536 170.605V171.694H41.4641V176.858L44.2031 176.842C44.6431 176.842 44.9566 176.803 45.1436 176.726V171.265C45.1436 170.803 45.0226 170.489 44.7806 170.324L44.6981 170.275H46.5791C46.8321 170.275 46.9586 170.407 46.9586 170.671V173.459H47.7836V171.265C47.7836 170.803 47.6681 170.489 47.4371 170.324L47.3546 170.275H49.2191C49.4831 170.275 49.6151 170.407 49.6151 170.671V181.825H47.7836V174.548H46.9586V181.825H45.1436V177.733C45.0666 177.788 44.9236 177.837 44.7146 177.881C44.5056 177.914 44.3241 177.931 44.1701 177.931L40.6721 177.947C40.3091 177.947 40.0231 177.832 39.8141 177.601C39.6051 177.37 39.5006 177.051 39.5006 176.644V171.776C39.5006 171.732 39.5006 171.683 39.5006 171.628C39.4786 171.177 39.3631 170.858 39.1541 170.671L39.1046 170.605H44.1536Z" fill="#0C2E86"/>
<path d="M53.3776 178.624V177.518H58.9546C58.9546 177.342 58.9546 177.073 58.9546 176.71C58.9546 176.347 58.9546 176.072 58.9546 175.885V171.067C58.9546 170.704 58.8336 170.456 58.5916 170.324L58.5091 170.275H60.4231C60.6981 170.275 60.8356 170.379 60.8356 170.588V172.354H62.7166V173.443H60.8356V181.825H58.9711V178.624H53.3776ZM57.5851 174.301C57.5851 174.994 57.2991 175.588 56.7271 176.083C56.1551 176.567 55.4621 176.809 54.6481 176.809C53.8451 176.809 53.1576 176.55 52.5856 176.033C52.0136 175.505 51.7276 174.895 51.7276 174.202V174.103C51.7276 173.498 51.9586 172.959 52.4206 172.486H51.6121V171.397H53.7076V170.786C53.7076 170.5 53.6251 170.346 53.4601 170.324V170.308L53.4766 170.275H55.6051V170.869C55.6051 171.111 55.6051 171.254 55.6051 171.298V171.397H57.7006V172.486H56.8756C57.3486 172.981 57.5851 173.553 57.5851 174.202V174.301ZM54.6481 172.601C54.3181 172.601 54.0321 172.772 53.7901 173.113C53.5591 173.454 53.4436 173.855 53.4436 174.317C53.4436 174.768 53.5591 175.137 53.7901 175.423C54.0211 175.698 54.3016 175.835 54.6316 175.835C54.9726 175.835 55.2641 175.665 55.5061 175.324C55.7481 174.983 55.8691 174.581 55.8691 174.119C55.8691 173.657 55.7481 173.289 55.5061 173.014C55.2751 172.739 54.9891 172.601 54.6481 172.601Z" fill="#0C2E86"/>
<path d="M71.0465 171.644H64.5785V170.522H72.977V177.254C72.977 177.375 72.977 177.491 72.977 177.601C72.944 178.822 72.757 179.779 72.416 180.472H73.868V181.561H63.671V180.472H65.519V176.446C65.519 176.413 65.5135 176.38 65.5025 176.347C65.4915 175.94 65.376 175.659 65.156 175.505L65.0735 175.456H67.334V180.472H68.4065V176.446C68.4065 176.413 68.4065 176.38 68.4065 176.347C68.3845 175.94 68.269 175.659 68.06 175.505L67.9775 175.456H70.2215V180.472H70.6505C70.8705 179.944 70.997 178.987 71.03 177.601C71.041 177.293 71.0465 175.758 71.0465 172.997V171.644Z" fill="#0C2E86"/>
<path d="M79.2847 181.825C78.8997 181.825 78.5916 181.709 78.3606 181.478C78.1296 181.247 78.0142 180.945 78.0142 180.571V178.937C78.0142 178.453 77.8437 178.134 77.5027 177.98L77.4862 177.964L77.5027 177.914H83.7727V171.067C83.7727 170.704 83.6462 170.456 83.3932 170.324L83.3107 170.275H85.3401C85.6151 170.275 85.7527 170.379 85.7527 170.588V181.825H79.2847ZM83.8056 179.036H79.9612V180.736H83.8056V179.036ZM80.3407 172.7C80.3407 173.954 81.2262 174.922 82.9972 175.604L83.0302 175.621L82.0566 176.561H82.0402C81.5232 176.418 81.0006 176.165 80.4726 175.802C79.9446 175.439 79.5707 175.093 79.3507 174.763C79.1417 175.093 78.7732 175.439 78.2452 175.802C77.7172 176.165 77.1891 176.418 76.6611 176.561H76.6447L75.6712 175.621L75.7042 175.604C77.4752 174.922 78.3606 173.954 78.3606 172.7V172.304H76.3312V171.199H78.3772V170.951C78.3772 170.94 78.3772 170.924 78.3772 170.902V170.885C78.3772 170.775 78.3662 170.687 78.3442 170.621C78.3222 170.544 78.2782 170.484 78.2122 170.44C78.1462 170.396 78.1022 170.374 78.0802 170.374C78.0582 170.363 78.0086 170.346 77.9316 170.324V170.275H80.3242V170.852C80.3242 170.885 80.3242 170.918 80.3242 170.951V171.199H82.4032V172.304H80.3407V172.7Z" fill="#60513A"/>
<path d="M90.8785 172.651C90.5705 172.651 90.301 172.871 90.07 173.311C89.85 173.74 89.74 174.246 89.74 174.829C89.74 175.401 89.85 175.907 90.07 176.347C90.301 176.776 90.565 176.99 90.862 176.99C91.181 176.99 91.456 176.776 91.687 176.347C91.918 175.918 92.0335 175.412 92.0335 174.829C92.0335 174.235 91.918 173.723 91.687 173.294C91.467 172.865 91.1975 172.651 90.8785 172.651ZM88.1065 174.812V174.796C88.1065 173.894 88.398 173.135 88.981 172.519H88.0075V171.413H89.9875V170.918C89.9875 170.555 89.916 170.357 89.773 170.324H89.7565L89.773 170.275H91.786V171.413H93.766V172.519H92.776C93.37 173.135 93.667 173.894 93.667 174.796V174.812C93.667 175.67 93.392 176.407 92.842 177.023C92.303 177.639 91.6485 177.947 90.8785 177.947C90.1195 177.947 89.465 177.639 88.915 177.023C88.376 176.407 88.1065 175.67 88.1065 174.812ZM98.881 181.825H97.0495V174.548H96.241V181.825H94.4095V171.265C94.4095 170.803 94.294 170.489 94.063 170.324L93.9805 170.275H95.845C96.109 170.275 96.241 170.407 96.241 170.671V173.459H97.0495V171.265C97.0495 170.803 96.934 170.489 96.703 170.324L96.6205 170.275H98.5015C98.7545 170.275 98.881 170.407 98.881 170.671V181.825Z" fill="#60513A"/>
<path d="M109.831 173.228V181.825H107.851V171.265C107.851 170.803 107.724 170.489 107.471 170.324L107.372 170.275H109.402C109.688 170.275 109.831 170.407 109.831 170.671V172.139H111.811V173.228H109.831ZM102.472 171.496C102.472 171.122 102.318 170.841 102.01 170.654L101.927 170.605H104.435V173.261C104.435 174.13 104.666 174.922 105.128 175.637C105.59 176.341 106.173 176.809 106.877 177.04L106.927 177.056L105.937 177.947C105.519 177.859 105.051 177.612 104.534 177.205C104.028 176.787 103.665 176.374 103.445 175.967C103.236 176.374 102.873 176.787 102.356 177.205C101.85 177.612 101.394 177.859 100.987 177.947H100.97L99.9968 177.056L100.046 177.04C100.75 176.809 101.328 176.341 101.779 175.637C102.241 174.922 102.472 174.13 102.472 173.261V171.496Z" fill="#60513A"/>
<path d="M116.269 180.472V176.644C116.269 176.611 116.269 176.578 116.269 176.545C116.247 176.138 116.126 175.857 115.906 175.703L115.84 175.654H118.249V180.472H119.734C119.954 179.944 120.081 178.987 120.114 177.601C120.125 177.293 120.13 175.758 120.13 172.997V171.644H113.662V170.522H122.061V177.254C122.061 177.375 122.061 177.491 122.061 177.601C122.028 178.822 121.841 179.779 121.5 180.472H122.968V181.561H112.771V180.472H116.269Z" fill="#60513A"/>
<path d="M129.722 170.605V171.694H127.032V176.858L129.771 176.842C130.211 176.842 130.525 176.803 130.712 176.726V171.265C130.712 170.803 130.591 170.489 130.349 170.324L130.266 170.275H132.147C132.4 170.275 132.527 170.407 132.527 170.671V173.459H133.352V171.265C133.352 170.803 133.236 170.489 133.005 170.324L132.923 170.275H134.787C135.051 170.275 135.183 170.407 135.183 170.671V181.825H133.352V174.548H132.527V181.825H130.712V177.733C130.635 177.788 130.492 177.837 130.283 177.881C130.074 177.914 129.892 177.931 129.738 177.931L126.24 177.947C125.877 177.947 125.591 177.832 125.382 177.601C125.173 177.37 125.069 177.051 125.069 176.644V171.776C125.069 171.732 125.069 171.683 125.069 171.628C125.047 171.177 124.931 170.858 124.722 170.671L124.673 170.605H129.722Z" fill="#60513A"/>
<path d="M141.949 174.02C142.455 174.02 142.873 173.899 143.203 173.657C143.533 173.415 143.698 173.096 143.698 172.7C143.698 172.293 143.533 171.985 143.203 171.776C142.884 171.556 142.466 171.446 141.949 171.446C141.454 171.446 141.036 171.556 140.695 171.776C140.365 171.996 140.2 172.304 140.2 172.7C140.2 173.085 140.37 173.404 140.711 173.657C141.063 173.899 141.476 174.02 141.949 174.02ZM143.714 170.555C144.869 170.951 145.535 171.534 145.711 172.304C145.865 172.986 145.612 173.602 144.952 174.152C144.204 174.779 143.203 175.093 141.949 175.093C140.937 175.093 140.057 174.862 139.309 174.4C138.572 173.938 138.203 173.366 138.203 172.684C138.203 171.991 138.583 171.419 139.342 170.968C140.101 170.506 140.975 170.275 141.965 170.275C142.57 170.275 143.153 170.368 143.714 170.555ZM142.064 180.719C142.603 180.719 143.049 180.604 143.401 180.373C143.764 180.131 143.945 179.817 143.945 179.432C143.945 179.036 143.769 178.734 143.417 178.525C143.065 178.316 142.614 178.211 142.064 178.211C141.514 178.211 141.058 178.321 140.695 178.541C140.343 178.75 140.167 179.047 140.167 179.432C140.167 179.806 140.348 180.114 140.711 180.356C141.085 180.598 141.536 180.719 142.064 180.719ZM143.995 177.304C145.282 177.689 146.019 178.266 146.206 179.036C146.382 179.696 146.118 180.301 145.414 180.851C144.6 181.5 143.478 181.825 142.048 181.825C140.937 181.825 139.969 181.594 139.144 181.132C138.319 180.67 137.906 180.098 137.906 179.416C137.906 178.954 138.104 178.536 138.5 178.162C138.907 177.788 139.424 177.507 140.051 177.32C140.689 177.122 141.36 177.023 142.064 177.023C142.746 177.023 143.39 177.117 143.995 177.304ZM137.032 176.462V175.439H147.229V176.462H137.032Z" fill="#60513A"/>
<path d="M152.53 181.825C152.178 181.825 151.892 181.709 151.672 181.478C151.452 181.247 151.342 180.945 151.342 180.571V178.376C151.342 177.947 151.287 177.639 151.177 177.452L151.144 177.386H153.206V180.703H157.48C157.48 180.241 157.48 179.542 157.48 178.607C157.48 177.672 157.48 176.968 157.48 176.495V171.067C157.48 170.704 157.364 170.456 157.133 170.324L157.051 170.275H158.717C158.97 170.275 159.097 170.379 159.097 170.588V181.825H152.53ZM156.853 177.287H155.236V173.806H153.635V172.717H155.236V171.017C155.225 170.676 155.104 170.445 154.873 170.324L154.807 170.275H156.457C156.721 170.275 156.853 170.379 156.853 170.588V177.287ZM152.579 172.667C152.579 173.349 152.783 173.965 153.19 174.515C153.597 175.054 154.119 175.412 154.757 175.588L154.807 175.604L153.932 176.545H153.916C153.553 176.479 153.14 176.264 152.678 175.901C152.216 175.527 151.886 175.17 151.688 174.829C151.49 175.17 151.16 175.527 150.698 175.901C150.236 176.264 149.829 176.479 149.477 176.545H149.461L148.586 175.604L148.619 175.588C149.268 175.412 149.796 175.054 150.203 174.515C150.61 173.965 150.814 173.344 150.814 172.651V171.265C150.814 170.957 150.676 170.731 150.401 170.588L150.319 170.539H152.579V172.667Z" fill="#60513A"/>
<path d="M167.49 174.812V173.723H169.107V171.265C169.107 170.803 168.981 170.489 168.728 170.324L168.629 170.275H170.658C170.944 170.275 171.087 170.407 171.087 170.671V181.825H169.107V177.683C168.777 177.859 168.381 177.947 167.919 177.947H163.283C162.898 177.947 162.595 177.837 162.375 177.617C162.155 177.397 162.045 177.095 162.045 176.71V171.727C162.045 171.672 162.045 171.622 162.045 171.578C162.012 171.149 161.891 170.841 161.682 170.654L161.616 170.605H167.507V171.727H164.042V173.723H166.962V174.829H164.042V176.825H167.985C168.403 176.825 168.777 176.77 169.107 176.66V174.812H167.49Z" fill="#60513A"/>
<path d="M6.585 190.25C6.28 190.07 5.9475 189.98 5.5875 189.98C5.0375 189.98 4.59 190.157 4.245 190.512C3.905 190.867 3.735 191.32 3.735 191.87C3.735 192.43 3.91 192.885 4.26 193.235C4.61 193.585 5.0425 193.76 5.5575 193.76C5.7375 193.76 5.9275 193.74 6.1275 193.7C6.3325 193.655 6.4925 193.597 6.6075 193.527L6.6525 194.195C6.3725 194.31 6.005 194.367 5.55 194.367C4.78 194.367 4.1625 194.14 3.6975 193.685C3.2325 193.23 3 192.617 3 191.847C3 191.112 3.24 190.517 3.72 190.062C4.2 189.602 4.8125 189.372 5.5575 189.372C5.9675 189.372 6.33 189.442 6.645 189.582L6.585 190.25Z" fill="#60513A"/>
<path d="M8.99531 189.372H9.72281L11.8303 194.375H11.0803L10.5178 192.987H8.14781L7.58531 194.375H6.85781L8.99531 189.372ZM9.33281 190.025L8.37281 192.417H10.3003L9.33281 190.025Z" fill="#60513A"/>
<path d="M13.0767 189.98H11.5692V189.372H15.2742V189.98H13.7742V194.375H13.0767V189.98Z" fill="#60513A"/>
<path d="M17.7661 190.805C18.2111 190.805 18.5661 190.935 18.8311 191.195C19.0961 191.455 19.2286 191.835 19.2286 192.335V194.352H18.5386V192.41C18.5386 192.08 18.4611 191.835 18.3061 191.675C18.1511 191.51 17.9286 191.427 17.6386 191.427C17.3086 191.427 17.0486 191.525 16.8586 191.72C16.6736 191.91 16.5811 192.185 16.5811 192.545V194.352H15.8911V189.372H16.5811V191.27C16.7061 191.135 16.8611 191.027 17.0461 190.947C17.2611 190.852 17.5011 190.805 17.7661 190.805Z" fill="#60513A"/>
<path d="M23.3377 191.697C23.4977 191.967 23.5777 192.275 23.5777 192.62C23.5777 192.965 23.4977 193.272 23.3377 193.542C23.1827 193.812 22.9652 194.027 22.6852 194.187C22.4152 194.337 22.1052 194.412 21.7552 194.412C21.4052 194.412 21.0927 194.337 20.8177 194.187C20.5327 194.027 20.3152 193.812 20.1652 193.542C20.0052 193.272 19.9252 192.965 19.9252 192.62C19.9252 192.275 20.0052 191.967 20.1652 191.697C20.3202 191.427 20.5377 191.215 20.8177 191.06C21.0927 190.91 21.4052 190.835 21.7552 190.835C22.1052 190.835 22.4152 190.91 22.6852 191.06C22.9652 191.215 23.1827 191.427 23.3377 191.697ZM22.7377 193.242C22.8327 193.057 22.8802 192.85 22.8802 192.62C22.8802 192.39 22.8327 192.185 22.7377 192.005C22.6377 191.82 22.5027 191.68 22.3327 191.585C22.1677 191.49 21.9752 191.442 21.7552 191.442C21.5352 191.442 21.3427 191.49 21.1777 191.585C21.0077 191.68 20.8727 191.82 20.7727 192.005C20.6727 192.18 20.6227 192.385 20.6227 192.62C20.6227 192.855 20.6727 193.062 20.7727 193.242C20.8727 193.422 21.0077 193.56 21.1777 193.655C21.3477 193.755 21.5402 193.805 21.7552 193.805C21.9702 193.805 22.1627 193.755 22.3327 193.655C22.5027 193.56 22.6377 193.422 22.7377 193.242Z" fill="#60513A"/>
<path d="M24.1598 194.375V189.372H24.8498V194.375H24.1598Z" fill="#60513A"/>
<path d="M26.2648 190.115C26.1798 190.2 26.0723 190.242 25.9423 190.242C25.8123 190.242 25.7023 190.2 25.6123 190.115C25.5273 190.035 25.4848 189.935 25.4848 189.815V189.8C25.4848 189.68 25.5273 189.58 25.6123 189.5C25.6973 189.41 25.8048 189.365 25.9348 189.365C26.0698 189.365 26.1798 189.407 26.2648 189.492C26.3498 189.572 26.3923 189.672 26.3923 189.792C26.3923 189.917 26.3498 190.025 26.2648 190.115ZM25.5973 194.352V190.842H26.2798V194.352H25.5973Z" fill="#60513A"/>
<path d="M29.1759 193.655C29.2759 193.605 29.3734 193.525 29.4684 193.415L30.0159 193.767C29.8809 193.947 29.7134 194.09 29.5134 194.195C29.2684 194.32 28.9859 194.382 28.6659 194.382C28.3109 194.382 27.9934 194.305 27.7134 194.15C27.4334 194 27.2134 193.79 27.0534 193.52C26.8934 193.25 26.8134 192.942 26.8134 192.597C26.8134 192.252 26.8934 191.945 27.0534 191.675C27.2134 191.4 27.4334 191.187 27.7134 191.037C27.9934 190.882 28.3109 190.805 28.6659 190.805C28.9859 190.805 29.2709 190.87 29.5209 191C29.7209 191.105 29.8859 191.247 30.0159 191.427L29.4684 191.78C29.3734 191.67 29.2759 191.59 29.1759 191.54C29.0209 191.46 28.8484 191.42 28.6584 191.42C28.4384 191.42 28.2409 191.467 28.0659 191.562C27.8909 191.662 27.7534 191.8 27.6534 191.975C27.5584 192.155 27.5109 192.362 27.5109 192.597C27.5109 192.832 27.5584 193.037 27.6534 193.212C27.7534 193.392 27.8909 193.532 28.0659 193.632C28.2409 193.727 28.4384 193.775 28.6584 193.775C28.8484 193.775 29.0209 193.735 29.1759 193.655Z" fill="#60513A"/>
<path d="M36.2538 192.282C36.2538 192.957 36.0888 193.475 35.7588 193.835C35.4338 194.195 34.9688 194.375 34.3638 194.375C33.7638 194.375 33.2988 194.195 32.9688 193.835C32.6438 193.475 32.4813 192.957 32.4813 192.282V189.372H33.1788V192.192C33.1788 192.692 33.2688 193.08 33.4488 193.355C33.6338 193.625 33.9388 193.76 34.3638 193.76C34.7938 193.76 35.0988 193.625 35.2788 193.355C35.4638 193.08 35.5563 192.692 35.5563 192.192V189.372H36.2538V192.282Z" fill="#60513A"/>
<path d="M37.3252 189.372H38.2627L40.4002 193.347H40.4077V189.372H41.1052V194.375H40.2202L38.0302 190.317H38.0152V194.375H37.3252V189.372Z" fill="#60513A"/>
<path d="M42.1838 189.372H42.8737V194.375H42.1838V189.372Z" fill="#60513A"/>
<path d="M46.1536 194.375H45.2911L43.4086 189.372H44.1811L45.7336 193.767H45.7411L47.3461 189.372H48.0661L46.1536 194.375Z" fill="#60513A"/>
<path d="M53.7823 190.25C53.4773 190.07 53.1448 189.98 52.7848 189.98C52.2348 189.98 51.7873 190.157 51.4423 190.512C51.1023 190.867 50.9323 191.32 50.9323 191.87C50.9323 192.43 51.1073 192.885 51.4573 193.235C51.8073 193.585 52.2398 193.76 52.7548 193.76C52.9348 193.76 53.1248 193.74 53.3248 193.7C53.5298 193.655 53.6898 193.597 53.8048 193.527L53.8498 194.195C53.5698 194.31 53.2023 194.367 52.7473 194.367C51.9773 194.367 51.3598 194.14 50.8948 193.685C50.4298 193.23 50.1973 192.617 50.1973 191.847C50.1973 191.112 50.4373 190.517 50.9173 190.062C51.3973 189.602 52.0098 189.372 52.7548 189.372C53.1648 189.372 53.5273 189.442 53.8423 189.582L53.7823 190.25Z" fill="#60513A"/>
<path d="M57.6326 191.697C57.7926 191.967 57.8726 192.275 57.8726 192.62C57.8726 192.965 57.7926 193.272 57.6326 193.542C57.4776 193.812 57.2601 194.027 56.9801 194.187C56.7101 194.337 56.4001 194.412 56.0501 194.412C55.7001 194.412 55.3876 194.337 55.1126 194.187C54.8276 194.027 54.6101 193.812 54.4601 193.542C54.3001 193.272 54.2201 192.965 54.2201 192.62C54.2201 192.275 54.3001 191.967 54.4601 191.697C54.6151 191.427 54.8326 191.215 55.1126 191.06C55.3876 190.91 55.7001 190.835 56.0501 190.835C56.4001 190.835 56.7101 190.91 56.9801 191.06C57.2601 191.215 57.4776 191.427 57.6326 191.697ZM57.0326 193.242C57.1276 193.057 57.1751 192.85 57.1751 192.62C57.1751 192.39 57.1276 192.185 57.0326 192.005C56.9326 191.82 56.7976 191.68 56.6276 191.585C56.4626 191.49 56.2701 191.442 56.0501 191.442C55.8301 191.442 55.6376 191.49 55.4726 191.585C55.3026 191.68 55.1676 191.82 55.0676 192.005C54.9676 192.18 54.9176 192.385 54.9176 192.62C54.9176 192.855 54.9676 193.062 55.0676 193.242C55.1676 193.422 55.3026 193.56 55.4726 193.655C55.6426 193.755 55.8351 193.805 56.0501 193.805C56.2651 193.805 56.4576 193.755 56.6276 193.655C56.7976 193.56 56.9326 193.422 57.0326 193.242Z" fill="#60513A"/>
<path d="M62.4748 190.767C62.8748 190.767 63.1923 190.885 63.4273 191.12C63.6673 191.35 63.7873 191.695 63.7873 192.155V194.375H63.1648V192.215C63.1648 191.92 63.0973 191.697 62.9623 191.547C62.8273 191.402 62.6323 191.33 62.3773 191.33C62.1023 191.33 61.8823 191.417 61.7173 191.592C61.5523 191.762 61.4698 192.012 61.4698 192.342V194.375H60.8473V192.215C60.8473 191.92 60.7798 191.697 60.6448 191.547C60.5098 191.402 60.3173 191.33 60.0673 191.33C59.7873 191.33 59.5648 191.417 59.3998 191.592C59.2348 191.762 59.1523 192.012 59.1523 192.342V194.375H58.5298V190.79H59.1298V191.202C59.2448 191.067 59.3823 190.965 59.5423 190.895C59.7273 190.81 59.9398 190.767 60.1798 190.767C60.4298 190.767 60.6523 190.817 60.8473 190.917C61.0273 191.007 61.1698 191.14 61.2748 191.315C61.3898 191.15 61.5473 191.017 61.7473 190.917C61.9623 190.817 62.2048 190.767 62.4748 190.767Z" fill="#60513A"/>
<path d="M68.1398 191.9C68.2948 192.175 68.3723 192.487 68.3723 192.837C68.3723 193.182 68.2948 193.492 68.1398 193.767C67.9898 194.042 67.7798 194.255 67.5098 194.405C67.2398 194.555 66.9348 194.63 66.5948 194.63C66.3398 194.63 66.1098 194.582 65.9048 194.487C65.7198 194.397 65.5598 194.277 65.4248 194.127V195.995H64.7348V191.082H65.3948V191.562C65.5348 191.402 65.6973 191.28 65.8823 191.195C66.0923 191.095 66.3298 191.045 66.5948 191.045C66.9348 191.045 67.2398 191.12 67.5098 191.27C67.7798 191.42 67.9898 191.63 68.1398 191.9ZM67.1198 193.872C67.2898 193.772 67.4248 193.632 67.5248 193.452C67.6248 193.272 67.6748 193.067 67.6748 192.837C67.6748 192.602 67.6248 192.395 67.5248 192.215C67.4248 192.035 67.2898 191.897 67.1198 191.802C66.9548 191.707 66.7623 191.66 66.5423 191.66C66.3323 191.66 66.1423 191.707 65.9723 191.802C65.8023 191.902 65.6673 192.04 65.5673 192.215C65.4673 192.395 65.4173 192.6 65.4173 192.83C65.4173 193.065 65.4648 193.272 65.5598 193.452C65.6598 193.637 65.7948 193.777 65.9648 193.872C66.1398 193.972 66.3323 194.022 66.5423 194.022C66.7573 194.022 66.9498 193.972 67.1198 193.872Z" fill="#60513A"/>
<path d="M71.6958 192.68V190.865H72.3783V194.375H71.7258V193.917C71.6008 194.067 71.4508 194.185 71.2758 194.27C71.0608 194.37 70.8308 194.42 70.5858 194.42C70.1158 194.42 69.7458 194.29 69.4758 194.03C69.2058 193.77 69.0708 193.387 69.0708 192.882V190.865H69.7608V192.807C69.7608 193.137 69.8383 193.385 69.9933 193.55C70.1433 193.715 70.3658 193.797 70.6608 193.797C70.9808 193.797 71.2333 193.7 71.4183 193.505C71.6033 193.31 71.6958 193.035 71.6958 192.68Z" fill="#60513A"/>
<path d="M75.041 193.64L75.071 193.61L75.296 194.12L75.2735 194.135C75.1835 194.215 75.0685 194.277 74.9285 194.322C74.7885 194.362 74.646 194.382 74.501 194.382C74.146 194.382 73.8685 194.285 73.6685 194.09C73.4735 193.9 73.376 193.627 73.376 193.272V191.412H72.791V190.835H73.376V190.077H74.066V190.835H75.056V191.412H74.066V193.25C74.066 193.425 74.1085 193.56 74.1935 193.655C74.2835 193.75 74.411 193.797 74.576 193.797C74.756 193.797 74.911 193.745 75.041 193.64Z" fill="#60513A"/>
<path d="M78.2974 191.06C78.5574 191.215 78.7599 191.43 78.9049 191.705C79.0549 191.98 79.1299 192.292 79.1299 192.642C79.1299 192.707 79.1274 192.77 79.1224 192.83L79.1149 192.86H76.3324C76.3724 193.135 76.4974 193.36 76.7074 193.535C76.9324 193.715 77.2099 193.805 77.5399 193.805C77.9449 193.805 78.2699 193.67 78.5149 193.4L78.5374 193.377L78.9199 193.827L78.9049 193.842C78.7399 194.037 78.5424 194.18 78.3124 194.27C78.0774 194.365 77.8149 194.412 77.5249 194.412C77.1499 194.412 76.8199 194.337 76.5349 194.187C76.2499 194.037 76.0274 193.825 75.8674 193.55C75.7124 193.275 75.6349 192.965 75.6349 192.62C75.6349 192.28 75.7099 191.975 75.8599 191.705C76.0149 191.425 76.2249 191.21 76.4899 191.06C76.7549 190.91 77.0574 190.835 77.3974 190.835C77.7324 190.835 78.0324 190.91 78.2974 191.06ZM76.3249 192.35H78.4699C78.4299 192.085 78.3149 191.865 78.1249 191.69C77.9299 191.515 77.6874 191.427 77.3974 191.427C77.1074 191.427 76.8649 191.515 76.6699 191.69C76.4799 191.855 76.3649 192.075 76.3249 192.35Z" fill="#60513A"/>
<path d="M81.0291 190.992C81.2491 190.882 81.5116 190.827 81.8166 190.827H81.8541V191.502H81.8166C81.7766 191.497 81.7366 191.495 81.6966 191.495C81.6916 191.495 81.6841 191.495 81.6741 191.495C81.3491 191.495 81.0916 191.592 80.9016 191.787C80.7166 191.982 80.6241 192.262 80.6241 192.627V194.375H79.9341V190.865H80.5941V191.36C80.7041 191.205 80.8491 191.082 81.0291 190.992Z" fill="#60513A"/>
<path d="M84.2295 189.372H86.9445V189.98H84.927V191.48H86.7645V192.087H84.927V193.767H86.9445V194.375H84.2295V189.372Z" fill="#60513A"/>
<path d="M91.5431 190.767C91.9431 190.767 92.2606 190.885 92.4956 191.12C92.7356 191.35 92.8556 191.695 92.8556 192.155V194.375H92.2331V192.215C92.2331 191.92 92.1656 191.697 92.0306 191.547C91.8956 191.402 91.7006 191.33 91.4456 191.33C91.1706 191.33 90.9506 191.417 90.7856 191.592C90.6206 191.762 90.5381 192.012 90.5381 192.342V194.375H89.9156V192.215C89.9156 191.92 89.8481 191.697 89.7131 191.547C89.5781 191.402 89.3856 191.33 89.1356 191.33C88.8556 191.33 88.6331 191.417 88.4681 191.592C88.3031 191.762 88.2206 192.012 88.2206 192.342V194.375H87.5981V190.79H88.1981V191.202C88.3131 191.067 88.4506 190.965 88.6106 190.895C88.7956 190.81 89.0081 190.767 89.2481 190.767C89.4981 190.767 89.7206 190.817 89.9156 190.917C90.0956 191.007 90.2381 191.14 90.3431 191.315C90.4581 191.15 90.6156 191.017 90.8156 190.917C91.0306 190.817 91.2731 190.767 91.5431 190.767Z" fill="#60513A"/>
<path d="M96.2857 191.06C96.5457 191.215 96.7482 191.43 96.8932 191.705C97.0432 191.98 97.1182 192.292 97.1182 192.642C97.1182 192.707 97.1157 192.77 97.1107 192.83L97.1032 192.86H94.3207C94.3607 193.135 94.4857 193.36 94.6957 193.535C94.9207 193.715 95.1982 193.805 95.5282 193.805C95.9332 193.805 96.2582 193.67 96.5032 193.4L96.5257 193.377L96.9082 193.827L96.8932 193.842C96.7282 194.037 96.5307 194.18 96.3007 194.27C96.0657 194.365 95.8032 194.412 95.5132 194.412C95.1382 194.412 94.8082 194.337 94.5232 194.187C94.2382 194.037 94.0157 193.825 93.8557 193.55C93.7007 193.275 93.6232 192.965 93.6232 192.62C93.6232 192.28 93.6982 191.975 93.8482 191.705C94.0032 191.425 94.2132 191.21 94.4782 191.06C94.7432 190.91 95.0457 190.835 95.3857 190.835C95.7207 190.835 96.0207 190.91 96.2857 191.06ZM94.3132 192.35H96.4582C96.4182 192.085 96.3032 191.865 96.1132 191.69C95.9182 191.515 95.6757 191.427 95.3857 191.427C95.0957 191.427 94.8532 191.515 94.6582 191.69C94.4682 191.855 94.3532 192.075 94.3132 192.35Z" fill="#60513A"/>
<path d="M99.0173 190.992C99.2373 190.882 99.4998 190.827 99.8048 190.827H99.8423V191.502H99.8048C99.7648 191.497 99.7248 191.495 99.6848 191.495C99.6798 191.495 99.6723 191.495 99.6623 191.495C99.3373 191.495 99.0798 191.592 98.8898 191.787C98.7048 191.982 98.6123 192.262 98.6123 192.627V194.375H97.9223V190.865H98.5823V191.36C98.6923 191.205 98.8373 191.082 99.0173 190.992Z" fill="#60513A"/>
<path d="M102.952 191.022H103.612V194.135C103.612 194.745 103.457 195.197 103.147 195.492C102.842 195.787 102.389 195.935 101.789 195.935C101.459 195.935 101.147 195.89 100.852 195.8C100.552 195.71 100.309 195.58 100.124 195.41L100.102 195.395L100.432 194.862L100.462 194.885C100.622 195.025 100.817 195.132 101.047 195.207C101.277 195.287 101.514 195.327 101.759 195.327H101.767C102.167 195.327 102.459 195.235 102.644 195.05C102.829 194.865 102.922 194.58 102.922 194.195V193.91C102.787 194.06 102.619 194.175 102.419 194.255C102.194 194.35 101.962 194.397 101.722 194.397H101.714C101.374 194.397 101.072 194.325 100.807 194.18C100.527 194.035 100.312 193.832 100.162 193.572C100.007 193.312 99.9291 193.017 99.9291 192.687C99.9291 192.357 100.007 192.062 100.162 191.802C100.312 191.547 100.527 191.347 100.807 191.202C101.072 191.062 101.374 190.992 101.714 190.992C101.979 190.992 102.224 191.042 102.449 191.142C102.654 191.227 102.822 191.347 102.952 191.502V191.022ZM102.374 193.64C102.549 193.55 102.687 193.422 102.787 193.257C102.887 193.092 102.937 192.902 102.937 192.687C102.937 192.362 102.829 192.1 102.614 191.9C102.399 191.7 102.122 191.6 101.782 191.6C101.442 191.6 101.162 191.7 100.942 191.9C100.732 192.1 100.627 192.362 100.627 192.687C100.627 192.897 100.674 193.087 100.769 193.257C100.869 193.422 101.007 193.55 101.182 193.64C101.362 193.735 101.562 193.782 101.782 193.782C102.002 193.782 102.199 193.735 102.374 193.64Z" fill="#60513A"/>
<path d="M106.961 191.06C107.221 191.215 107.424 191.43 107.569 191.705C107.719 191.98 107.794 192.292 107.794 192.642C107.794 192.707 107.791 192.77 107.786 192.83L107.779 192.86H104.996C105.036 193.135 105.161 193.36 105.371 193.535C105.596 193.715 105.874 193.805 106.204 193.805C106.609 193.805 106.934 193.67 107.179 193.4L107.201 193.377L107.584 193.827L107.569 193.842C107.404 194.037 107.206 194.18 106.976 194.27C106.741 194.365 106.479 194.412 106.189 194.412C105.814 194.412 105.484 194.337 105.199 194.187C104.914 194.037 104.691 193.825 104.531 193.55C104.376 193.275 104.299 192.965 104.299 192.62C104.299 192.28 104.374 191.975 104.524 191.705C104.679 191.425 104.889 191.21 105.154 191.06C105.419 190.91 105.721 190.835 106.061 190.835C106.396 190.835 106.696 190.91 106.961 191.06ZM104.989 192.35H107.134C107.094 192.085 106.979 191.865 106.789 191.69C106.594 191.515 106.351 191.427 106.061 191.427C105.771 191.427 105.529 191.515 105.334 191.69C105.144 191.855 105.029 192.075 104.989 192.35Z" fill="#60513A"/>
<path d="M110.473 190.797C110.918 190.797 111.273 190.927 111.538 191.187C111.803 191.447 111.936 191.827 111.936 192.327V194.375H111.246V192.395C111.246 192.07 111.168 191.827 111.013 191.667C110.858 191.502 110.636 191.42 110.346 191.42C110.016 191.42 109.756 191.515 109.566 191.705C109.381 191.895 109.288 192.172 109.288 192.537V194.375H108.598V190.827H109.258V191.292C109.383 191.142 109.538 191.025 109.723 190.94C109.943 190.845 110.193 190.797 110.473 190.797Z" fill="#60513A"/>
<path d="M114.957 193.655C115.057 193.605 115.155 193.525 115.25 193.415L115.797 193.767C115.662 193.947 115.495 194.09 115.295 194.195C115.05 194.32 114.767 194.382 114.447 194.382C114.092 194.382 113.775 194.305 113.495 194.15C113.215 194 112.995 193.79 112.835 193.52C112.675 193.25 112.595 192.942 112.595 192.597C112.595 192.252 112.675 191.945 112.835 191.675C112.995 191.4 113.215 191.187 113.495 191.037C113.775 190.882 114.092 190.805 114.447 190.805C114.767 190.805 115.052 190.87 115.302 191C115.502 191.105 115.667 191.247 115.797 191.427L115.25 191.78C115.155 191.67 115.057 191.59 114.957 191.54C114.802 191.46 114.63 191.42 114.44 191.42C114.22 191.42 114.022 191.467 113.847 191.562C113.672 191.662 113.535 191.8 113.435 191.975C113.34 192.155 113.292 192.362 113.292 192.597C113.292 192.832 113.34 193.037 113.435 193.212C113.535 193.392 113.672 193.532 113.847 193.632C114.022 193.727 114.22 193.775 114.44 193.775C114.63 193.775 114.802 193.735 114.957 193.655Z" fill="#60513A"/>
<path d="M119.163 190.865H119.838L118.06 194.915C117.91 195.275 117.733 195.527 117.528 195.672C117.328 195.817 117.085 195.89 116.8 195.89C116.63 195.89 116.463 195.862 116.298 195.807C116.138 195.752 116.003 195.672 115.893 195.567L115.878 195.545L116.178 195.027L116.208 195.05C116.378 195.215 116.575 195.297 116.8 195.297C116.945 195.297 117.065 195.26 117.16 195.185C117.26 195.105 117.35 194.97 117.43 194.78L117.625 194.322L116.088 190.865H116.808L117.993 193.572L119.163 190.865Z" fill="#60513A"/>
<path d="M122.269 189.372H123.454C123.669 189.372 123.856 189.38 124.016 189.395C124.181 189.41 124.349 189.445 124.519 189.5C124.694 189.555 124.836 189.63 124.946 189.725C125.061 189.815 125.154 189.942 125.224 190.107C125.294 190.267 125.329 190.457 125.329 190.677C125.329 190.967 125.234 191.212 125.044 191.412C124.859 191.607 124.621 191.73 124.331 191.78V191.795C124.441 191.84 124.529 191.895 124.594 191.96C124.659 192.025 124.729 192.132 124.804 192.282L125.786 194.375H124.999L124.189 192.53C124.134 192.415 124.079 192.325 124.024 192.26C123.974 192.195 123.909 192.15 123.829 192.125C123.754 192.095 123.689 192.077 123.634 192.072C123.579 192.062 123.494 192.057 123.379 192.057H122.959V194.375H122.269V189.372ZM122.959 191.45H123.551C123.876 191.45 124.131 191.382 124.316 191.247C124.501 191.112 124.594 190.927 124.594 190.692C124.594 190.472 124.511 190.3 124.346 190.175C124.181 190.045 123.941 189.98 123.626 189.98H122.959V191.45Z" fill="#60513A"/>
<path d="M128.547 191.06C128.807 191.215 129.01 191.43 129.155 191.705C129.305 191.98 129.38 192.292 129.38 192.642C129.38 192.707 129.377 192.77 129.372 192.83L129.365 192.86H126.582C126.622 193.135 126.747 193.36 126.957 193.535C127.182 193.715 127.46 193.805 127.79 193.805C128.195 193.805 128.52 193.67 128.765 193.4L128.787 193.377L129.17 193.827L129.155 193.842C128.99 194.037 128.792 194.18 128.562 194.27C128.327 194.365 128.065 194.412 127.775 194.412C127.4 194.412 127.07 194.337 126.785 194.187C126.5 194.037 126.277 193.825 126.117 193.55C125.962 193.275 125.885 192.965 125.885 192.62C125.885 192.28 125.96 191.975 126.11 191.705C126.265 191.425 126.475 191.21 126.74 191.06C127.005 190.91 127.307 190.835 127.647 190.835C127.982 190.835 128.282 190.91 128.547 191.06ZM126.575 192.35H128.72C128.68 192.085 128.565 191.865 128.375 191.69C128.18 191.515 127.937 191.427 127.647 191.427C127.357 191.427 127.115 191.515 126.92 191.69C126.73 191.855 126.615 192.075 126.575 192.35Z" fill="#60513A"/>
<path d="M131.392 192.327C131.632 192.372 131.827 192.422 131.977 192.477C132.127 192.532 132.257 192.627 132.367 192.762C132.477 192.902 132.532 193.092 132.532 193.332C132.532 193.657 132.412 193.915 132.172 194.105C131.937 194.29 131.619 194.382 131.219 194.382H131.212C130.967 194.382 130.729 194.345 130.499 194.27C130.274 194.195 130.097 194.097 129.967 193.977L129.952 193.955L130.199 193.407L130.229 193.43C130.359 193.535 130.514 193.62 130.694 193.685C130.874 193.75 131.062 193.782 131.257 193.782C131.712 193.782 131.939 193.637 131.939 193.347C131.939 193.252 131.909 193.177 131.849 193.122C131.789 193.062 131.714 193.02 131.624 192.995C131.529 192.965 131.394 192.932 131.219 192.897C130.974 192.857 130.777 192.807 130.627 192.747C130.472 192.692 130.337 192.595 130.222 192.455C130.112 192.315 130.057 192.12 130.057 191.87C130.057 191.545 130.172 191.285 130.402 191.09C130.632 190.9 130.939 190.805 131.324 190.805C131.529 190.805 131.729 190.832 131.924 190.887C132.124 190.942 132.289 191.02 132.419 191.12L132.442 191.135L132.187 191.682L132.164 191.667C131.924 191.487 131.642 191.397 131.317 191.397C131.092 191.397 130.922 191.44 130.807 191.525C130.697 191.605 130.642 191.71 130.642 191.84C130.642 191.945 130.672 192.027 130.732 192.087C130.797 192.147 130.877 192.192 130.972 192.222C131.072 192.252 131.212 192.287 131.392 192.327Z" fill="#60513A"/>
<path d="M136.659 191.9C136.814 192.175 136.892 192.487 136.892 192.837C136.892 193.182 136.814 193.492 136.659 193.767C136.509 194.042 136.299 194.255 136.029 194.405C135.759 194.555 135.454 194.63 135.114 194.63C134.859 194.63 134.629 194.582 134.424 194.487C134.239 194.397 134.079 194.277 133.944 194.127V195.995H133.254V191.082H133.914V191.562C134.054 191.402 134.217 191.28 134.402 191.195C134.612 191.095 134.849 191.045 135.114 191.045C135.454 191.045 135.759 191.12 136.029 191.27C136.299 191.42 136.509 191.63 136.659 191.9ZM135.639 193.872C135.809 193.772 135.944 193.632 136.044 193.452C136.144 193.272 136.194 193.067 136.194 192.837C136.194 192.602 136.144 192.395 136.044 192.215C135.944 192.035 135.809 191.897 135.639 191.802C135.474 191.707 135.282 191.66 135.062 191.66C134.852 191.66 134.662 191.707 134.492 191.802C134.322 191.902 134.187 192.04 134.087 192.215C133.987 192.395 133.937 192.6 133.937 192.83C133.937 193.065 133.984 193.272 134.079 193.452C134.179 193.637 134.314 193.777 134.484 193.872C134.659 193.972 134.852 194.022 135.062 194.022C135.277 194.022 135.469 193.972 135.639 193.872Z" fill="#60513A"/>
<path d="M140.748 191.697C140.908 191.967 140.988 192.275 140.988 192.62C140.988 192.965 140.908 193.272 140.748 193.542C140.593 193.812 140.375 194.027 140.095 194.187C139.825 194.337 139.515 194.412 139.165 194.412C138.815 194.412 138.503 194.337 138.228 194.187C137.943 194.027 137.725 193.812 137.575 193.542C137.415 193.272 137.335 192.965 137.335 192.62C137.335 192.275 137.415 191.967 137.575 191.697C137.73 191.427 137.948 191.215 138.228 191.06C138.503 190.91 138.815 190.835 139.165 190.835C139.515 190.835 139.825 190.91 140.095 191.06C140.375 191.215 140.593 191.427 140.748 191.697ZM140.148 193.242C140.243 193.057 140.29 192.85 140.29 192.62C140.29 192.39 140.243 192.185 140.148 192.005C140.048 191.82 139.913 191.68 139.743 191.585C139.578 191.49 139.385 191.442 139.165 191.442C138.945 191.442 138.753 191.49 138.588 191.585C138.418 191.68 138.283 191.82 138.183 192.005C138.083 192.18 138.033 192.385 138.033 192.62C138.033 192.855 138.083 193.062 138.183 193.242C138.283 193.422 138.418 193.56 138.588 193.655C138.758 193.755 138.95 193.805 139.165 193.805C139.38 193.805 139.573 193.755 139.743 193.655C139.913 193.56 140.048 193.422 140.148 193.242Z" fill="#60513A"/>
<path d="M143.52 190.797C143.965 190.797 144.32 190.927 144.585 191.187C144.85 191.447 144.982 191.827 144.982 192.327V194.375H144.292V192.395C144.292 192.07 144.215 191.827 144.06 191.667C143.905 191.502 143.683 191.42 143.393 191.42C143.063 191.42 142.803 191.515 142.613 191.705C142.428 191.895 142.335 192.172 142.335 192.537V194.375H141.645V190.827H142.305V191.292C142.43 191.142 142.585 191.025 142.77 190.94C142.99 190.845 143.24 190.797 143.52 190.797Z" fill="#60513A"/>
<path d="M147.142 192.327C147.382 192.372 147.577 192.422 147.727 192.477C147.877 192.532 148.007 192.627 148.117 192.762C148.227 192.902 148.282 193.092 148.282 193.332C148.282 193.657 148.162 193.915 147.922 194.105C147.687 194.29 147.369 194.382 146.969 194.382H146.962C146.717 194.382 146.479 194.345 146.249 194.27C146.024 194.195 145.847 194.097 145.717 193.977L145.702 193.955L145.949 193.407L145.979 193.43C146.109 193.535 146.264 193.62 146.444 193.685C146.624 193.75 146.812 193.782 147.007 193.782C147.462 193.782 147.689 193.637 147.689 193.347C147.689 193.252 147.659 193.177 147.599 193.122C147.539 193.062 147.464 193.02 147.374 192.995C147.279 192.965 147.144 192.932 146.969 192.897C146.724 192.857 146.527 192.807 146.377 192.747C146.222 192.692 146.087 192.595 145.972 192.455C145.862 192.315 145.807 192.12 145.807 191.87C145.807 191.545 145.922 191.285 146.152 191.09C146.382 190.9 146.689 190.805 147.074 190.805C147.279 190.805 147.479 190.832 147.674 190.887C147.874 190.942 148.039 191.02 148.169 191.12L148.192 191.135L147.937 191.682L147.914 191.667C147.674 191.487 147.392 191.397 147.067 191.397C146.842 191.397 146.672 191.44 146.557 191.525C146.447 191.605 146.392 191.71 146.392 191.84C146.392 191.945 146.422 192.027 146.482 192.087C146.547 192.147 146.627 192.192 146.722 192.222C146.822 192.252 146.962 192.287 147.142 192.327Z" fill="#60513A"/>
<path d="M151.487 191.06C151.747 191.215 151.949 191.43 152.094 191.705C152.244 191.98 152.319 192.292 152.319 192.642C152.319 192.707 152.317 192.77 152.312 192.83L152.304 192.86H149.522C149.562 193.135 149.687 193.36 149.897 193.535C150.122 193.715 150.399 193.805 150.729 193.805C151.134 193.805 151.459 193.67 151.704 193.4L151.727 193.377L152.109 193.827L152.094 193.842C151.929 194.037 151.732 194.18 151.502 194.27C151.267 194.365 151.004 194.412 150.714 194.412C150.339 194.412 150.009 194.337 149.724 194.187C149.439 194.037 149.217 193.825 149.057 193.55C148.902 193.275 148.824 192.965 148.824 192.62C148.824 192.28 148.899 191.975 149.049 191.705C149.204 191.425 149.414 191.21 149.679 191.06C149.944 190.91 150.247 190.835 150.587 190.835C150.922 190.835 151.222 190.91 151.487 191.06ZM149.514 192.35H151.659C151.619 192.085 151.504 191.865 151.314 191.69C151.119 191.515 150.877 191.427 150.587 191.427C150.297 191.427 150.054 191.515 149.859 191.69C149.669 191.855 149.554 192.075 149.514 192.35Z" fill="#60513A"/>
<path d="M156.169 189.98H154.661V189.372H158.366V189.98H156.866V194.375H156.169V189.98Z" fill="#60513A"/>
<path d="M161.09 191.06C161.35 191.215 161.553 191.43 161.698 191.705C161.848 191.98 161.923 192.292 161.923 192.642C161.923 192.707 161.92 192.77 161.915 192.83L161.908 192.86H159.125C159.165 193.135 159.29 193.36 159.5 193.535C159.725 193.715 160.003 193.805 160.333 193.805C160.738 193.805 161.063 193.67 161.308 193.4L161.33 193.377L161.713 193.827L161.698 193.842C161.533 194.037 161.335 194.18 161.105 194.27C160.87 194.365 160.608 194.412 160.318 194.412C159.943 194.412 159.613 194.337 159.328 194.187C159.043 194.037 158.82 193.825 158.66 193.55C158.505 193.275 158.428 192.965 158.428 192.62C158.428 192.28 158.503 191.975 158.653 191.705C158.808 191.425 159.018 191.21 159.283 191.06C159.548 190.91 159.85 190.835 160.19 190.835C160.525 190.835 160.825 190.91 161.09 191.06ZM159.118 192.35H161.263C161.223 192.085 161.108 191.865 160.918 191.69C160.723 191.515 160.48 191.427 160.19 191.427C159.9 191.427 159.658 191.515 159.463 191.69C159.273 191.855 159.158 192.075 159.118 192.35Z" fill="#60513A"/>
<path d="M165.142 191.187C165.402 191.432 165.532 191.79 165.532 192.26V194.375H164.88V193.985C164.785 194.11 164.652 194.21 164.482 194.285C164.287 194.37 164.055 194.412 163.785 194.412C163.385 194.412 163.067 194.317 162.832 194.127C162.592 193.937 162.472 193.685 162.472 193.37C162.472 193.055 162.587 192.802 162.817 192.612C163.042 192.422 163.4 192.327 163.89 192.327H164.85V192.237C164.85 191.977 164.775 191.78 164.625 191.645C164.475 191.505 164.252 191.435 163.957 191.435H163.95C163.75 191.435 163.555 191.467 163.365 191.532C163.235 191.577 163.115 191.64 163.005 191.72L162.712 191.195C162.882 191.085 163.055 191.002 163.23 190.947C163.48 190.872 163.745 190.835 164.025 190.835C164.51 190.835 164.882 190.952 165.142 191.187ZM163.882 193.872C164.112 193.872 164.312 193.82 164.482 193.715C164.652 193.61 164.775 193.465 164.85 193.28V192.837H163.92C163.41 192.837 163.155 193.005 163.155 193.34C163.155 193.505 163.217 193.632 163.342 193.722C163.477 193.822 163.657 193.872 163.882 193.872Z" fill="#60513A"/>
<path d="M170.504 190.767C170.904 190.767 171.222 190.885 171.457 191.12C171.697 191.35 171.817 191.695 171.817 192.155V194.375H171.194V192.215C171.194 191.92 171.127 191.697 170.992 191.547C170.857 191.402 170.662 191.33 170.407 191.33C170.132 191.33 169.912 191.417 169.747 191.592C169.582 191.762 169.499 192.012 169.499 192.342V194.375H168.877V192.215C168.877 191.92 168.809 191.697 168.674 191.547C168.539 191.402 168.347 191.33 168.097 191.33C167.817 191.33 167.594 191.417 167.429 191.592C167.264 191.762 167.182 192.012 167.182 192.342V194.375H166.559V190.79H167.159V191.202C167.274 191.067 167.412 190.965 167.572 190.895C167.757 190.81 167.969 190.767 168.209 190.767C168.459 190.767 168.682 190.817 168.877 190.917C169.057 191.007 169.199 191.14 169.304 191.315C169.419 191.15 169.577 191.017 169.777 190.917C169.992 190.817 170.234 190.767 170.504 190.767Z" fill="#60513A"/>
</svg>
